<?xml version="1.0" encoding="utf-8"?>
<!-- Generator: Adobe Illustrator 27.3.1, SVG Export Plug-In . SVG Version: 6.00 Build 0)  -->
<svg version="1.1" id="Layer_1" xmlns="http://www.w3.org/2000/svg" xmlns:xlink="http://www.w3.org/1999/xlink" x="0px" y="0px"
	 viewBox="0 0 1920 1080" style="enable-background:new 0 0 1920 1080;" xml:space="preserve">
<style type="text/css">
	.st0{opacity:0.65;}
	.st1{clip-path:url(#SVGID_00000055666074022879956350000005797954629221348994_);}
	.st2{fill:#0F2959;}
	.st3{fill:#FFCD01;}
	.st4{display:none;}
	.st5{display:inline;}
	.st6{display:inline;clip-path:url(#SVGID_00000134951022049065493570000012141012480911398327_);}
	.st7{fill:#51ADFC;}
	.st8{clip-path:url(#SVGID_00000145024863645635674270000009830545340061108352_);}
</style>
<g class="st0">
	<g>
		<defs>
			<path id="SVGID_1_" d="M1769.64,644.36l129.61-129.61c17.38-17.38,17.38-45.56,0-62.95l-129.61-129.61
				c-17.38-17.38-45.56-17.38-62.95,0l-129.61,129.61c-17.38,17.38-17.38,45.56,0,62.95l129.61,129.61
				C1724.07,661.75,1752.26,661.75,1769.64,644.36z"/>
		</defs>
		<clipPath id="SVGID_00000069388582950934145450000007917788500715772299_">
			<use xlink:href="#SVGID_1_"  style="overflow:visible;"/>
		</clipPath>
		<g style="clip-path:url(#SVGID_00000069388582950934145450000007917788500715772299_);">
			<g>
				
					<rect x="1395.25" y="441.09" transform="matrix(0.7071 -0.7071 0.7071 0.7071 183.1189 1332.5791)" class="st2" width="609.74" height="8.31"/>
				
					<rect x="1433.29" y="479.13" transform="matrix(0.7071 -0.7071 0.7071 0.7071 167.3621 1370.6194)" class="st2" width="609.74" height="8.31"/>
				
					<rect x="1471.34" y="517.17" transform="matrix(0.7071 -0.7071 0.7071 0.7071 151.6053 1408.6597)" class="st2" width="609.74" height="8.31"/>
				
					<rect x="1509.38" y="555.21" transform="matrix(0.7071 -0.7071 0.7071 0.7071 135.8485 1446.7)" class="st2" width="609.74" height="8.31"/>
				
					<rect x="1357.21" y="403.05" transform="matrix(0.7071 -0.7071 0.7071 0.7071 198.8757 1294.5388)" class="st2" width="609.74" height="8.31"/>
				
					<rect x="1376.23" y="422.07" transform="matrix(0.7071 -0.7071 0.7071 0.7071 190.9973 1313.559)" class="st2" width="609.74" height="8.31"/>
				
					<rect x="1414.27" y="460.11" transform="matrix(0.7071 -0.7071 0.7071 0.7071 175.2405 1351.5992)" class="st2" width="609.74" height="8.31"/>
				
					<rect x="1452.32" y="498.15" transform="matrix(0.7071 -0.7071 0.7071 0.7071 159.4837 1389.6395)" class="st2" width="609.74" height="8.31"/>
				
					<rect x="1490.36" y="536.19" transform="matrix(0.7071 -0.7071 0.7071 0.7071 143.7269 1427.6798)" class="st2" width="609.74" height="8.31"/>
				
					<rect x="1528.4" y="574.23" transform="matrix(0.7071 -0.7071 0.7071 0.7071 127.9701 1465.7201)" class="st2" width="609.74" height="8.31"/>
				
					<rect x="1338.19" y="384.03" transform="matrix(0.7071 -0.7071 0.7071 0.7071 206.7541 1275.5187)" class="st2" width="609.74" height="8.31"/>
			</g>
		</g>
	</g>
	<path class="st3" d="M66.17,451.02l108.08-107.17c14.5-14.37,14.59-37.78,0.22-52.27L67.3,183.5
		c-14.37-14.5-37.78-14.59-52.27-0.22L-93.05,290.45c-14.5,14.37-14.59,37.78-0.22,52.27L13.9,450.8
		C28.27,465.3,51.67,465.39,66.17,451.02z"/>
	<g class="st4">
		<defs>
			<path id="SVGID_00000163759353105277369320000010301937501184467634_" d="M1033.25,1001.45l94.08-94.08
				c12.62-12.62,12.62-33.08,0-45.69l-94.08-94.08c-12.62-12.62-33.08-12.62-45.69,0l-94.08,94.08c-12.62,12.62-12.62,33.08,0,45.69
				l94.08,94.08C1000.18,1014.07,1020.63,1014.07,1033.25,1001.45z"/>
		</defs>
		<clipPath id="SVGID_00000047748292413818686770000014488053595298629552_" class="st5">
			<use xlink:href="#SVGID_00000163759353105277369320000010301937501184467634_"  style="overflow:visible;"/>
		</clipPath>
		<g style="display:inline;clip-path:url(#SVGID_00000047748292413818686770000014488053595298629552_);">
			
				<rect x="979.78" y="635.6" transform="matrix(0.7071 0.7071 -0.7071 0.7071 893.7654 -443.9543)" class="st7" width="6.03" height="442.62"/>
			
				<rect x="1007.39" y="663.21" transform="matrix(0.7071 0.7071 -0.7071 0.7071 921.3793 -455.3925)" class="st7" width="6.03" height="442.62"/>
			
				<rect x="1035" y="690.83" transform="matrix(0.7071 0.7071 -0.7071 0.7071 949.0067 -466.8316)" class="st7" width="6.03" height="442.62"/>
			
				<rect x="1062.62" y="718.44" transform="matrix(0.7071 0.7071 -0.7071 0.7071 976.6208 -478.2697)" class="st7" width="6.03" height="442.62"/>
			
				<rect x="952.16" y="607.98" transform="matrix(0.7071 0.7071 -0.7071 0.7071 866.1516 -432.5161)" class="st7" width="6.03" height="442.62"/>
			
				<rect x="965.97" y="621.79" transform="matrix(0.7071 0.7071 -0.7071 0.7071 879.9586 -438.2353)" class="st7" width="6.03" height="442.62"/>
			
				<rect x="993.58" y="649.4" transform="matrix(0.7071 0.7071 -0.7071 0.7071 907.5704 -449.6733)" class="st7" width="6.03" height="442.62"/>
			
				<rect x="1021.2" y="677.02" transform="matrix(0.7071 0.7071 -0.7071 0.7071 935.1995 -461.1125)" class="st7" width="6.03" height="442.62"/>
			
				<rect x="1048.81" y="704.63" transform="matrix(0.7071 0.7071 -0.7071 0.7071 962.8137 -472.5506)" class="st7" width="6.03" height="442.62"/>
			
				<rect x="1076.43" y="732.25" transform="matrix(0.7071 0.7071 -0.7071 0.7071 990.4279 -483.9888)" class="st7" width="6.03" height="442.62"/>
			
				<rect x="938.35" y="594.18" transform="matrix(0.7071 0.7071 -0.7071 0.7071 852.3447 -426.7971)" class="st7" width="6.03" height="442.62"/>
		</g>
	</g>
	<path class="st7" d="M1371.59,205.99l111.35-111.35c14.93-14.93,14.93-39.15,0-54.08L1371.59-70.8
		c-14.93-14.93-39.15-14.93-54.08,0L1206.16,40.55c-14.93,14.93-14.93,39.15,0,54.08l111.35,111.35
		C1332.45,220.92,1356.66,220.92,1371.59,205.99z"/>
	<g>
		<defs>
			<path id="SVGID_00000052085022185166829900000000468366195759647657_" d="M59.65,283.94l78.47-78.47
				c10.52-10.52,10.52-27.59,0-38.11L59.65,88.9c-10.52-10.52-27.59-10.52-38.11,0l-78.47,78.47c-10.52,10.52-10.52,27.59,0,38.11
				l78.47,78.47C32.07,294.46,49.13,294.46,59.65,283.94z"/>
		</defs>
		<clipPath id="SVGID_00000034051751012976137300000015318704683005442448_">
			<use xlink:href="#SVGID_00000052085022185166829900000000468366195759647657_"  style="overflow:visible;"/>
		</clipPath>
		<g style="clip-path:url(#SVGID_00000034051751012976137300000015318704683005442448_);">
			
				<rect x="15.05" y="-21.19" transform="matrix(0.7071 0.7071 -0.7071 0.7071 120.6776 35.4332)" class="st7" width="5.03" height="369.15"/>
			
				<rect x="38.08" y="1.84" transform="matrix(0.7071 0.7071 -0.7071 0.7071 143.708 25.8933)" class="st7" width="5.03" height="369.15"/>
			
				<rect x="61.11" y="24.87" transform="matrix(0.7071 0.7071 -0.7071 0.7071 166.7387 16.3537)" class="st7" width="5.03" height="369.15"/>
			
				<rect x="84.14" y="47.9" transform="matrix(0.7071 0.7071 -0.7071 0.7071 189.7667 6.8129)" class="st7" width="5.03" height="369.15"/>
			
				<rect x="-7.98" y="-44.22" transform="matrix(0.7071 0.7071 -0.7071 0.7071 97.6466 44.9726)" class="st7" width="5.03" height="369.15"/>
			
				<rect x="3.54" y="-32.71" transform="matrix(0.7071 0.7071 -0.7071 0.7071 109.1625 40.2032)" class="st7" width="5.03" height="369.15"/>
			
				<rect x="26.57" y="-9.67" transform="matrix(0.7071 0.7071 -0.7071 0.7071 132.1943 30.6643)" class="st7" width="5.03" height="369.15"/>
			
				<rect x="49.6" y="13.36" transform="matrix(0.7071 0.7071 -0.7071 0.7071 155.2254 21.1247)" class="st7" width="5.03" height="369.15"/>
			
				<rect x="72.63" y="36.39" transform="matrix(0.7071 0.7071 -0.7071 0.7071 178.254 11.5839)" class="st7" width="5.03" height="369.15"/>
			
				<rect x="95.66" y="59.42" transform="matrix(0.7071 0.7071 -0.7071 0.7071 201.2847 2.0443)" class="st7" width="5.03" height="369.15"/>
			
				<rect x="-19.49" y="-55.74" transform="matrix(0.7071 0.7071 -0.7071 0.7071 86.1313 49.7423)" class="st7" width="5.03" height="369.15"/>
		</g>
	</g>
</g>
</svg>
