<?xml version="1.0" encoding="utf-8"?>
<!-- Generator: Adobe Illustrator 27.3.1, SVG Export Plug-In . SVG Version: 6.00 Build 0)  -->
<svg version="1.1" id="Layer_1" xmlns="http://www.w3.org/2000/svg" xmlns:xlink="http://www.w3.org/1999/xlink" x="0px" y="0px"
	 viewBox="0 0 500 243" style="enable-background:new 0 0 500 243;" xml:space="preserve">
<style type="text/css">
	.st0{fill:#0659A0;}
	.st1{fill:#ED386A;}
	.st2{fill:#85D2E0;}
	.st3{fill:#FFFFFF;}
</style>
<g>
	<path class="st0" d="M415.68,182.29c0,6.42-2.6,12.23-6.81,16.44c-4.21,4.21-10.02,6.81-16.44,6.81h-232
		c-12.85,0-23.26-10.41-23.26-23.25c0-6.42,2.6-12.24,6.81-16.45c4.21-4.21,10.02-6.81,16.45-6.81h111.04v32.59
		c0,3.73,1.64,6.11,2.99,7.43c1.93,1.9,4.45,2.9,7.28,2.9c3.69,0,6.05-1.6,7.4-2.96c2.25-2.29,2.55-4.94,2.75-6.69l0.03-0.27
		c0.22-1.79,0.71-3.57,1.38-5.68c1.07-3.35,2.36-6.64,3.81-9.77c3.19-6.86,7.07-12.74,11.58-17.55h83.72
		C405.26,159.03,415.68,169.44,415.68,182.29z"/>
	<g>
		<path class="st0" d="M81.89,82.86c1.48,0,2.7-0.43,3.61-1.28c0.92-0.86,1.39-1.98,1.39-3.36c0-1.43-0.47-2.6-1.38-3.49
			c-0.91-0.88-2.13-1.33-3.62-1.33H40.66c-1.42,0-2.64,0.48-3.62,1.42c-0.98,0.95-1.47,2.18-1.47,3.67v61.75
			c0,1.43,0.49,2.65,1.47,3.62c0.98,0.98,2.19,1.47,3.62,1.47h41.23c1.48,0,2.7-0.45,3.62-1.33c0.92-0.89,1.38-2.06,1.38-3.49
			c0-1.37-0.47-2.5-1.39-3.36c-0.91-0.85-2.13-1.28-3.61-1.28H45.75v-22.1h25.83c1.42,0,2.62-0.45,3.57-1.32
			c0.95-0.89,1.43-2.03,1.43-3.4c0-1.37-0.48-2.52-1.43-3.4c-0.94-0.88-2.14-1.32-3.57-1.32H45.75V82.86H81.89z"/>
		<path class="st0" d="M119.91,120.63l13.6-17.74c0.9-1.15,1.35-2.45,1.35-3.86c0-1.18-0.38-2.19-1.14-3.02
			c-0.77-0.83-1.82-1.25-3.13-1.25c-1.57,0-2.8,0.57-3.65,1.69l-13.14,17.52L99.12,96.43c-0.92-1.11-2.17-1.68-3.73-1.68
			c-1.37,0-2.45,0.4-3.22,1.2c-0.76,0.79-1.15,1.76-1.15,2.89c0,1.29,0.49,2.54,1.45,3.69l14.86,17.57l-13.95,17.47
			c-0.9,1.09-1.36,2.3-1.36,3.6c0,1.18,0.39,2.18,1.15,2.98c0.76,0.8,1.82,1.2,3.13,1.2c1.37,0,2.56-0.53,3.56-1.59l13.51-16.99
			l14.22,16.99c0.8,1.06,1.99,1.6,3.56,1.6c1.3,0,2.38-0.4,3.21-1.19c0.83-0.79,1.25-1.8,1.25-2.99c0-1.3-0.46-2.46-1.36-3.42
			L119.91,120.63z"/>
		<path class="st0" d="M176.74,97.54c-3.45-2.09-7.59-3.15-12.31-3.15c-4.78,0-9.12,1.11-12.9,3.28c-3.78,2.18-6.77,5.27-8.89,9.17
			c-2.12,3.9-3.19,8.35-3.19,13.25c0,4.91,1.14,9.35,3.38,13.22c2.24,3.87,5.4,6.94,9.39,9.12c3.98,2.18,8.55,3.28,13.57,3.28
			c2.82,0,5.82-0.53,8.91-1.57c3.09-1.04,5.72-2.41,7.81-4.06c1.06-0.8,1.6-1.81,1.6-3.02c0-1.26-0.59-2.39-1.76-3.36
			c-0.73-0.67-1.73-1-2.97-1c-1.23,0-2.32,0.36-3.22,1.07c-1.24,0.94-2.85,1.76-4.78,2.41c-1.93,0.65-3.81,0.98-5.59,0.98
			c-4.52,0-8.39-1.29-11.5-3.84c-3.01-2.46-4.89-5.72-5.6-9.69h34.25c1.3,0,2.4-0.42,3.25-1.24c0.86-0.83,1.29-1.88,1.29-3.12
			c0-4.83-0.93-9.18-2.77-12.92C182.87,102.59,180.19,99.63,176.74,97.54z M148.8,115.64c0.76-3.79,2.45-6.86,5.05-9.15
			c2.69-2.36,6.25-3.56,10.58-3.56c3.9,0,7.1,1.19,9.52,3.55c2.34,2.29,3.82,5.37,4.4,9.16H148.8z"/>
		<path class="st0" d="M251.44,94.29c-3.38,0-6.5,0.66-9.27,1.95c-2.62,1.23-4.87,2.92-6.67,5.03c-1.57-2.17-3.56-3.87-5.93-5.07
			c-2.5-1.27-5.36-1.91-8.5-1.91c-2.58,0-5.02,0.45-7.24,1.35c-1.99,0.8-3.75,1.9-5.25,3.27c-0.18-1.1-0.65-2.02-1.4-2.74
			c-0.92-0.88-2.1-1.33-3.53-1.33c-1.43,0-2.63,0.46-3.57,1.37c-0.95,0.92-1.43,2.14-1.43,3.63v40.59c0,1.43,0.48,2.63,1.42,3.58
			c0.94,0.95,2.15,1.42,3.58,1.42c1.49,0,2.71-0.48,3.63-1.43c0.91-0.94,1.37-2.15,1.37-3.57v-25.72c0-3.3,1-6.04,2.96-8.15
			c1.96-2.1,4.53-3.17,7.63-3.17c2.99,0,5.4,0.93,7.18,2.77c1.78,1.84,2.68,4.6,2.68,8.19v26.09c0,1.43,0.48,2.63,1.42,3.58
			c0.94,0.95,2.15,1.42,3.58,1.42c1.49,0,2.71-0.48,3.63-1.43c0.91-0.94,1.38-2.15,1.38-3.57v-25.72c0-3.3,1-6.04,2.96-8.15
			c1.96-2.1,4.5-3.17,7.54-3.17c2.99,0,5.4,0.93,7.18,2.77c1.78,1.84,2.68,4.6,2.68,8.19v26.09c0,1.43,0.48,2.63,1.42,3.58
			c0.94,0.95,2.15,1.42,3.58,1.42c1.49,0,2.71-0.48,3.63-1.43c0.91-0.94,1.38-2.15,1.38-3.57v-26.09c0-6.26-1.67-11.22-4.97-14.74
			C261.2,96.08,256.81,94.29,251.44,94.29z"/>
		<path class="st0" d="M357.28,135.52H355c-1.22,0-2.19-0.66-2.98-2.02c-0.82-1.4-1.23-3.21-1.23-5.39v-49.8
			c0-1.43-0.46-2.61-1.38-3.53c-0.92-0.92-2.1-1.38-3.53-1.38c-1.43,0-2.62,0.46-3.53,1.38c-0.92,0.92-1.38,2.1-1.38,3.53v49.8
			c0,3.26,0.59,6.24,1.76,8.85c1.18,2.63,2.86,4.71,5,6.17c2.15,1.46,4.59,2.2,7.26,2.2h0.18c1.89,0,3.47-0.45,4.68-1.35
			c1.24-0.92,1.88-2.12,1.88-3.56c0-1.42-0.41-2.6-1.23-3.52C359.68,135.99,358.59,135.52,357.28,135.52z"/>
		<path class="st0" d="M461.51,95.7C461.51,95.7,461.51,95.7,461.51,95.7c-1.87-1-4.47-1.5-7.73-1.5c-3.08,0-6.01,0.62-8.72,1.86
			c-2.42,1.1-4.52,2.59-6.26,4.43v-0.82c0-3.21-1.7-4.91-4.91-4.91c-1.55,0-2.77,0.43-3.62,1.29c-0.85,0.85-1.29,2.07-1.29,3.62
			v40.77c0,1.61,0.44,2.85,1.29,3.67c0.85,0.82,2.07,1.24,3.62,1.24c1.61,0,2.85-0.44,3.67-1.29c0.82-0.85,1.24-2.07,1.24-3.62
			V113.8c0-3.27,1.3-5.91,3.87-7.84c2.6-1.95,6.09-2.94,10.37-2.94c1.49,0,3.46,0.21,5.86,0.63c0.62,0.13,1.11,0.19,1.44,0.19
			c2.05,0,3.39-1.07,3.98-3.16c0.07-0.22,0.11-0.56,0.11-1.02C464.43,98.07,463.45,96.74,461.51,95.7z"/>
	</g>
	<g>
		<path class="st1" d="M329.41,104.08c-2.41-4.29-5.79-7.72-10.04-10.2c-4.25-2.46-9.03-3.72-14.2-3.72
			c-5.17,0-9.92,1.25-14.09,3.72c-4.18,2.46-7.55,5.9-9.99,10.2c-2.45,4.3-3.69,9.16-3.69,14.46v73.08c0,1.35,0.4,2.4,1.22,3.2
			c0.82,0.81,1.85,1.2,3.12,1.2c1.34,0,2.38-0.39,3.17-1.19c0.82-0.83,0.94-1.88,1.09-3.22l0.03-0.31c0.29-2.4,0.96-4.67,1.62-6.78
			c1.14-3.57,2.52-7.09,4.09-10.46c4.53-9.74,10.38-17.69,17.39-23.66c2.4-2.04,4.96-3.85,7.61-5.39c5.04-2.94,9.81-6.06,12.9-12
			c2.25-4.31,3.4-9.18,3.4-14.49C333.06,113.25,331.83,108.38,329.41,104.08z M322.2,129.1c-1.72,3.14-4.09,5.65-7.04,7.44
			c-8.33,5.22-14.45,10.89-14.51,10.95c-0.02,0.02-0.04,0.03-0.06,0.05c-4.79,4.68-9.05,10.29-12.67,16.68
			c-0.17,0.31-0.51,0.5-0.86,0.5c-0.08,0-0.17-0.01-0.25-0.03c-0.43-0.12-0.74-0.51-0.74-0.96c0-4.15,0.01-8.3,0.02-12.45
			c0.01-7.76,0.03-15.78-0.01-23.68c0-0.03,0-0.08,0.01-0.12v-9.44c-0.01-0.34-0.17-8.42,5.43-14.71c1.1-1.13,2.33-2.11,3.66-2.92
			c2.97-1.81,6.33-2.73,9.99-2.73c3.65,0,7,0.92,9.98,2.73c2.95,1.81,5.32,4.33,7.05,7.5c1.7,3.17,2.57,6.74,2.57,10.61
			C324.78,122.41,323.91,125.96,322.2,129.1z"/>
		<path class="st2" d="M322.21,107.93c-1.73-3.17-4.1-5.7-7.05-7.5c-2.98-1.81-6.33-2.73-9.98-2.73c-3.65,0-7.02,0.92-9.99,2.73
			c-1.33,0.81-2.57,1.79-3.66,2.92c-5.59,6.29-5.43,14.37-5.43,14.71v9.44c-0.01,0.04-0.01,0.08-0.01,0.12
			c0.04,7.89,0.03,15.91,0.01,23.68c-0.01,4.15-0.02,8.3-0.02,12.45c0,0.45,0.31,0.84,0.74,0.96c0.08,0.02,0.17,0.03,0.25,0.03
			c0.35,0,0.68-0.19,0.86-0.5c3.61-6.39,7.87-12,12.67-16.68c0.01-0.01,0.03-0.03,0.06-0.05c0.06-0.06,6.17-5.73,14.51-10.95
			c2.94-1.79,5.31-4.3,7.04-7.44c1.71-3.14,2.58-6.69,2.58-10.56C324.78,114.67,323.91,111.1,322.21,107.93z M315.87,111.6
			c-0.77,0.98-2.07,1.51-3.31,1.35c-1.2-0.16-2.22-0.91-3.24-1.57c-3.15-2.03-6.72-0.84-8.79,2.12c-1.24,1.78-1.8,3.98-1.83,6.14
			c-0.01,0.85,0.04,1.72-0.18,2.53c-0.4,1.44-1.74,2.56-3.22,2.7c-1.49,0.14-3.01-0.72-3.67-2.05c-0.41-0.82-0.5-1.76-0.51-2.69
			c-0.08-3.89,1-7.84,3.26-11.01c2.26-3.17,5.72-5.52,9.55-6.21c3.84-0.68,7.99,0.36,10.89,2.98c0.33,0.29,0.64,0.61,0.91,0.96
			c0.29,0.37,0.54,0.77,0.7,1.22C316.85,109.24,316.64,110.63,315.87,111.6z"/>
		<path class="st1" d="M315.87,111.6c-0.77,0.98-2.07,1.51-3.31,1.35c-1.2-0.16-2.22-0.91-3.24-1.57c-3.15-2.03-6.72-0.84-8.79,2.12
			c-1.24,1.78-1.8,3.98-1.83,6.14c-0.01,0.85,0.04,1.72-0.18,2.53c-0.4,1.44-1.74,2.56-3.22,2.7c-1.49,0.14-3.01-0.72-3.67-2.05
			c-0.41-0.82-0.5-1.76-0.51-2.69c-0.08-3.89,1-7.84,3.26-11.01c2.26-3.17,5.72-5.52,9.55-6.21c3.84-0.68,7.99,0.36,10.89,2.98
			c0.33,0.29,0.64,0.61,0.91,0.96c0.29,0.37,0.54,0.77,0.7,1.22C316.85,109.24,316.64,110.63,315.87,111.6z"/>
	</g>
	<g>
		<g>
			<g>
				<g>
					<path class="st1" d="M428.57,75.51c-3.06-7.12-11.32-10.41-18.44-7.34c-7.12,3.06-10.41,11.31-7.35,18.43
						c3.06,7.12,11.32,10.41,18.44,7.35C428.34,90.89,431.63,82.63,428.57,75.51z M419.56,90.08c-4.98,2.15-10.76-0.15-12.9-5.14
						c-2.15-4.99,0.16-10.76,5.14-12.91c4.99-2.14,10.77,0.15,12.91,5.14C426.85,82.16,424.54,87.94,419.56,90.08z"/>
				</g>
			</g>
			<path class="st2" d="M424.7,77.17c-2.14-4.99-7.92-7.28-12.91-5.14c-4.98,2.15-7.29,7.92-5.14,12.91
				c2.14,4.99,7.92,7.29,12.9,5.14C424.54,87.94,426.85,82.16,424.7,77.17z M418.34,74.72c-0.08,0.5-0.5,0.85-0.93,1.04
				c-0.54,0.22-1.01,0.1-1.57,0.09c-0.74-0.03-1.5,0.11-2.22,0.42c-1.78,0.77-3.01,2.5-3.14,4.43c-0.05,0.66,0.04,1.31,0.24,1.93
				c0.09,0.29,0.21,0.59,0.36,0.86c0.15,0.29,0.31,0.58,0.28,0.91c-0.03,0.42-0.36,0.76-0.7,0.98c-0.42,0.28-0.95,0.28-1.39,0.06
				c-0.49-0.24-0.74-0.65-0.95-1.13c-0.47-1.1-0.71-2.3-0.68-3.5c0.02-0.62,0.11-1.23,0.27-1.83c0.5-1.85,1.66-3.49,3.24-4.57
				c0.43-0.29,0.89-0.54,1.37-0.75c0.86-0.37,1.78-0.59,2.71-0.65c0.75-0.04,1.53-0.06,2.25,0.17
				C418.15,73.4,418.45,74,418.34,74.72z"/>
			<g>
				<path class="st1" d="M418.34,74.72c-0.08,0.5-0.5,0.85-0.93,1.04c-0.54,0.22-1.01,0.1-1.57,0.09c-0.74-0.03-1.5,0.11-2.22,0.42
					c-1.78,0.77-3.01,2.5-3.14,4.43c-0.05,0.66,0.04,1.31,0.24,1.93c0.09,0.29,0.21,0.59,0.36,0.86c0.15,0.29,0.31,0.58,0.28,0.91
					c-0.03,0.42-0.36,0.76-0.7,0.98c-0.42,0.28-0.95,0.28-1.39,0.06c-0.49-0.24-0.74-0.65-0.95-1.13c-0.47-1.1-0.71-2.3-0.68-3.5
					c0.02-0.62,0.11-1.23,0.27-1.83c0.5-1.85,1.66-3.49,3.24-4.57c0.43-0.29,0.89-0.54,1.37-0.75c0.86-0.37,1.78-0.59,2.71-0.65
					c0.75-0.04,1.53-0.06,2.25,0.17C418.15,73.4,418.45,74,418.34,74.72z"/>
			</g>
		</g>
	</g>
	<g>
		<g>
			<g>
				<g>
					<path class="st1" d="M397.4,44.34c-6.87-8.17-19.05-9.21-27.22-2.34c-8.17,6.86-9.22,19.05-2.35,27.22
						c6.87,8.17,19.06,9.22,27.23,2.35C403.22,64.7,404.27,52.51,397.4,44.34z M391.32,67.14c-5.72,4.81-14.25,4.07-19.05-1.65
						c-4.81-5.72-4.08-14.25,1.64-19.06c5.72-4.81,14.25-4.07,19.05,1.65C397.78,53.79,397.04,62.32,391.32,67.14z"/>
				</g>
			</g>
			<path class="st2" d="M392.96,48.08c-4.81-5.71-13.33-6.45-19.05-1.65c-5.72,4.81-6.45,13.34-1.64,19.06
				c4.81,5.72,13.33,6.46,19.05,1.65C397.04,62.32,397.78,53.79,392.96,48.08z M392.04,57.77c-0.68,0.1-1.32-0.31-1.74-0.82
				c-0.51-0.61-0.54-1.3-0.74-2.04c-0.27-0.98-0.75-1.92-1.44-2.75c-1.72-2.04-4.49-2.97-7.09-2.38c-0.88,0.2-1.71,0.57-2.45,1.08
				c-0.35,0.24-0.68,0.52-0.99,0.82c-0.31,0.31-0.63,0.63-1.08,0.73c-0.57,0.12-1.14-0.18-1.57-0.53c-0.54-0.45-0.75-1.14-0.63-1.81
				c0.12-0.74,0.56-1.23,1.11-1.69c1.26-1.07,2.75-1.86,4.34-2.29c0.82-0.22,1.66-0.35,2.51-0.38c2.63-0.08,5.25,0.79,7.3,2.45
				c0.56,0.45,1.07,0.95,1.53,1.5c0.83,0.98,1.49,2.11,1.93,3.31c0.36,0.96,0.68,1.99,0.68,3.02C393.7,57,393.02,57.62,392.04,57.77
				z"/>
			<g>
				<path class="st1" d="M393.7,55.98c-0.01,1.01-0.68,1.64-1.67,1.79c-0.68,0.1-1.32-0.31-1.74-0.82c-0.51-0.61-0.54-1.3-0.74-2.04
					c-0.27-0.98-0.75-1.92-1.44-2.75c-1.72-2.04-4.49-2.97-7.09-2.38c-0.88,0.2-1.71,0.57-2.45,1.08c-0.35,0.24-0.68,0.52-0.99,0.82
					c-0.31,0.31-0.63,0.63-1.08,0.73c-0.57,0.12-1.14-0.18-1.57-0.53c-0.54-0.45-0.75-1.14-0.63-1.81c0.12-0.74,0.56-1.23,1.11-1.69
					c1.26-1.07,2.75-1.86,4.34-2.29c0.82-0.22,1.66-0.35,2.51-0.38c2.63-0.08,5.25,0.79,7.3,2.45c0.56,0.45,1.07,0.95,1.53,1.5
					c0.83,0.98,1.49,2.11,1.93,3.31C393.38,53.93,393.7,54.95,393.7,55.98z"/>
			</g>
		</g>
	</g>
	<g>
		<g>
			<g>
				<g>
					<g>
						<path class="st1" d="M390.34,93.12c-14.87,0-26.93,12.05-26.93,26.92c0,14.87,12.06,26.93,26.93,26.93
							c14.87,0,26.92-12.06,26.92-26.93C417.26,105.17,405.21,93.12,390.34,93.12z M390.34,138.89c-10.41,0-18.84-8.44-18.84-18.85
							c0-10.41,8.43-18.84,18.84-18.84c10.41,0,18.84,8.44,18.84,18.84C409.18,130.45,400.75,138.89,390.34,138.89z"/>
					</g>
				</g>
				<path class="st2" d="M390.34,101.2c-10.41,0-18.84,8.44-18.84,18.84c0,10.41,8.43,18.85,18.84,18.85
					c10.41,0,18.84-8.44,18.84-18.85C409.18,109.64,400.75,101.2,390.34,101.2z M402.87,129.14c-0.91,1.07-2.2,1.14-3.38,0.4
					c-0.82-0.5-1.13-1.51-1.12-2.43c0.01-1.12,0.58-1.87,1.03-2.84c0.6-1.28,0.93-2.72,0.93-4.23c0-3.71-2.12-7.19-5.42-8.89
					c-1.12-0.58-2.34-0.92-3.58-1.04c-0.59-0.06-1.19-0.06-1.79-0.02c-0.61,0.04-1.25,0.1-1.81-0.2c-0.72-0.38-1.06-1.21-1.2-1.97
					c-0.17-0.96,0.22-1.88,0.95-2.51c0.78-0.67,1.7-0.81,2.7-0.81c2.3,0,4.6,0.49,6.7,1.45c1.07,0.5,2.09,1.12,3.01,1.86
					c2.88,2.27,4.9,5.56,5.59,9.16c0.19,0.98,0.29,1.97,0.29,2.97c0,1.79-0.31,3.58-0.92,5.27
					C404.38,126.65,403.81,128.03,402.87,129.14z"/>
				<g>
					<path class="st1" d="M405.78,120.04c0,1.79-0.31,3.58-0.92,5.27c-0.48,1.35-1.05,2.73-1.99,3.83c-0.91,1.07-2.2,1.14-3.38,0.4
						c-0.82-0.5-1.13-1.51-1.12-2.43c0.01-1.12,0.58-1.87,1.03-2.84c0.6-1.28,0.93-2.72,0.93-4.23c0-3.71-2.12-7.19-5.42-8.89
						c-1.12-0.58-2.34-0.92-3.58-1.04c-0.59-0.06-1.19-0.06-1.79-0.02c-0.61,0.04-1.25,0.1-1.81-0.2c-0.72-0.38-1.06-1.21-1.2-1.97
						c-0.17-0.96,0.22-1.88,0.95-2.51c0.78-0.67,1.7-0.81,2.7-0.81c2.3,0,4.6,0.49,6.7,1.45c1.07,0.5,2.09,1.12,3.01,1.86
						c2.88,2.27,4.9,5.56,5.59,9.16C405.68,118.05,405.78,119.04,405.78,120.04z"/>
				</g>
			</g>
		</g>
		<path class="st1" d="M415.68,133.92v14.65c0,2.23-1.81,4.04-4.04,4.04c-2.23,0-4.04-1.81-4.04-4.04v-5.36
			C410.91,140.73,413.68,137.57,415.68,133.92z"/>
	</g>
	<g>
		<path class="st3" d="M333.05,171.11c0.43-0.43,0.64-0.97,0.64-1.61c0-0.64-0.22-1.19-0.64-1.61s-0.97-0.64-1.61-0.64h-17.37
			c-0.64,0-1.19,0.22-1.61,0.64c-0.43,0.43-0.64,0.97-0.64,1.61c0,0.64,0.22,1.19,0.64,1.61c0.43,0.43,0.97,0.64,1.61,0.64h6.31
			v19.85c0,0.67,0.23,1.24,0.69,1.69c0.46,0.46,1.03,0.69,1.69,0.69s1.24-0.23,1.69-0.69c0.46-0.46,0.69-1.03,0.69-1.69v-19.85h6.28
			C332.08,171.75,332.62,171.53,333.05,171.11z"/>
		<path class="st3" d="M344.07,175.91c-1.32-0.8-2.89-1.2-4.68-1.2c-1.8,0-3.44,0.42-4.88,1.25c-1.44,0.83-2.57,2-3.38,3.48
			c-0.8,1.47-1.2,3.15-1.2,4.99c0,1.85,0.43,3.53,1.28,4.99c0.85,1.47,2.05,2.63,3.56,3.46c1.5,0.82,3.22,1.24,5.11,1.24
			c1.07,0,2.2-0.2,3.35-0.59c1.16-0.39,2.15-0.91,2.94-1.53c0.52-0.39,0.8-0.92,0.8-1.53c0-0.62-0.29-1.18-0.81-1.62
			c-0.37-0.34-0.85-0.51-1.44-0.51c-0.57,0-1.07,0.17-1.49,0.5c-0.39,0.3-0.91,0.56-1.54,0.77c-0.63,0.21-1.23,0.32-1.8,0.32
			c-1.47,0-2.73-0.42-3.73-1.24c-0.78-0.64-1.33-1.46-1.63-2.43h11.46c0.62,0,1.14-0.2,1.55-0.6c0.42-0.41,0.64-0.92,0.64-1.52
			c0-1.81-0.35-3.44-1.05-4.85C346.42,177.85,345.39,176.71,344.07,175.91z M339.39,178.89c1.25,0,2.23,0.36,2.99,1.1
			c0.6,0.59,1.03,1.35,1.27,2.28h-9.08c0.29-0.91,0.77-1.67,1.44-2.25C336.85,179.27,337.99,178.89,339.39,178.89z"/>
		<path class="st3" d="M363.97,175.98c-1.45-0.85-3.1-1.28-4.88-1.28c-1.78,0-3.43,0.43-4.91,1.28c-1.48,0.85-2.65,2.03-3.49,3.51
			c-0.84,1.47-1.26,3.13-1.26,4.94c0,1.8,0.39,3.45,1.17,4.92c0.78,1.48,1.87,2.66,3.24,3.5c1.37,0.84,2.92,1.27,4.6,1.27
			c1.35,0,2.63-0.29,3.81-0.85c0.65-0.31,1.25-0.7,1.8-1.15c0.08,0.47,0.29,0.88,0.64,1.23c0.45,0.45,1.01,0.67,1.68,0.67
			s1.23-0.23,1.68-0.67c0.45-0.45,0.67-1.01,0.67-1.68v-7.24c0-1.8-0.43-3.46-1.28-4.94C366.59,178.01,365.42,176.83,363.97,175.98z
			 M356.51,179.71c0.76-0.46,1.63-0.69,2.58-0.69s1.81,0.23,2.58,0.69c0.76,0.46,1.37,1.11,1.81,1.92c0.44,0.82,0.66,1.76,0.66,2.79
			c0,1.02-0.22,1.95-0.66,2.77c-0.44,0.81-1.04,1.45-1.81,1.91c-0.76,0.46-1.63,0.69-2.58,0.69c-0.95,0-1.82-0.23-2.58-0.69
			c-0.77-0.46-1.38-1.11-1.83-1.92c-0.45-0.81-0.68-1.74-0.68-2.76c0-1.02,0.23-1.96,0.68-2.78
			C355.13,180.83,355.75,180.18,356.51,179.71z"/>
		<path class="st3" d="M396.68,176.74c-1.29-1.37-2.99-2.07-5.07-2.07c-1.29,0-2.48,0.25-3.54,0.75c-0.79,0.37-1.5,0.85-2.1,1.44
			c-0.53-0.6-1.17-1.08-1.88-1.44c-0.97-0.49-2.08-0.74-3.28-0.74c-0.99,0-1.93,0.18-2.79,0.52c-0.5,0.2-0.97,0.46-1.4,0.75
			c-0.1-0.16-0.22-0.31-0.36-0.45c-0.44-0.42-0.99-0.63-1.65-0.63c-0.66,0-1.22,0.22-1.67,0.65c-0.45,0.44-0.68,1.01-0.68,1.7v14.44
			c0,0.67,0.23,1.23,0.67,1.68c0.45,0.45,1.01,0.67,1.68,0.67c0.69,0,1.27-0.23,1.7-0.68c0.43-0.45,0.65-1.01,0.65-1.67v-9.15
			c0-1.04,0.29-1.86,0.9-2.51c0.59-0.64,1.34-0.95,2.3-0.95c0.91,0,1.62,0.26,2.14,0.81c0.53,0.54,0.79,1.39,0.79,2.52v9.28
			c0,0.67,0.23,1.23,0.67,1.68c0.45,0.45,1.01,0.67,1.68,0.67c0.69,0,1.26-0.23,1.7-0.68c0.43-0.45,0.65-1.01,0.65-1.67v-9.15
			c0-1.04,0.29-1.86,0.9-2.51c0.59-0.64,1.33-0.95,2.26-0.95c0.92,0,1.62,0.26,2.14,0.81c0.53,0.54,0.79,1.39,0.79,2.52v9.28
			c0,0.67,0.23,1.23,0.67,1.68c0.45,0.45,1.01,0.67,1.68,0.67c0.69,0,1.26-0.23,1.7-0.68c0.43-0.45,0.65-1.01,0.65-1.67v-9.28
			C398.61,180,397.96,178.1,396.68,176.74z"/>
	</g>
	<g>
		<path class="st3" d="M168.88,172.58c1.3-0.81,2.74-1.22,4.29-1.22c1.25,0,2.26,0.15,3.02,0.45c0.77,0.31,1.58,0.82,2.41,1.53
			c0.96,0.78,2.24,0.77,3.13-0.02c0.47-0.42,0.7-0.95,0.7-1.59c0-0.37-0.06-0.71-0.18-1c-0.13-0.32-0.38-0.62-0.72-0.87
			c-1.29-1.04-2.58-1.8-3.85-2.26c-1.27-0.46-2.79-0.69-4.5-0.69c-2.43,0-4.69,0.62-6.71,1.84c-2.01,1.22-3.62,2.89-4.78,4.96
			c-1.16,2.07-1.74,4.39-1.74,6.88c0,2.51,0.59,4.84,1.74,6.93c1.16,2.09,2.77,3.76,4.78,4.97c2.01,1.21,4.27,1.82,6.7,1.82
			c3.12,0,5.95-1.01,8.44-3.03c0.48-0.48,0.72-1.05,0.72-1.69c0-0.66-0.2-1.2-0.59-1.63c-0.77-0.83-1.95-0.89-3.02-0.13
			c-1.77,1.33-3.64,2-5.55,2c-1.55,0-2.99-0.41-4.29-1.22c-1.31-0.82-2.36-1.95-3.13-3.35c-0.77-1.4-1.16-2.97-1.16-4.66
			c0-1.67,0.39-3.23,1.16-4.65C166.52,174.54,167.57,173.4,168.88,172.58z"/>
		<path class="st3" d="M191.74,189.34h-0.81c-0.1,0-0.31,0-0.57-0.43c-0.24-0.41-0.36-0.96-0.36-1.63v-17.72
			c0-0.66-0.22-1.22-0.66-1.66c-0.44-0.44-1-0.66-1.66-0.66c-0.66,0-1.22,0.22-1.66,0.66c-0.44,0.44-0.66,1-0.66,1.66v17.72
			c0,1.24,0.23,2.38,0.68,3.38c0.46,1.04,1.13,1.85,1.98,2.43c0.87,0.59,1.85,0.88,2.97,0.88c0.8,0,1.47-0.2,2-0.59
			c0.59-0.43,0.9-1.03,0.9-1.73c0-0.65-0.2-1.2-0.58-1.63C192.9,189.57,192.37,189.34,191.74,189.34z"/>
		<path class="st3" d="M208,175.91c-1.32-0.8-2.89-1.2-4.68-1.2c-1.8,0-3.44,0.42-4.88,1.25c-1.44,0.83-2.57,2-3.38,3.48
			c-0.8,1.47-1.2,3.15-1.2,4.99c0,1.85,0.43,3.53,1.28,4.99c0.85,1.47,2.05,2.63,3.56,3.46c1.5,0.82,3.22,1.24,5.11,1.24
			c1.07,0,2.2-0.2,3.35-0.59c1.16-0.39,2.15-0.91,2.94-1.53c0.52-0.39,0.8-0.92,0.8-1.53c0-0.62-0.29-1.18-0.81-1.62
			c-0.37-0.34-0.85-0.51-1.44-0.51c-0.57,0-1.07,0.17-1.49,0.5c-0.39,0.3-0.91,0.56-1.54,0.77c-0.63,0.21-1.23,0.32-1.8,0.32
			c-1.47,0-2.73-0.42-3.73-1.24c-0.78-0.64-1.33-1.46-1.63-2.43h11.46c0.62,0,1.14-0.2,1.55-0.6c0.42-0.41,0.64-0.92,0.64-1.52
			c0-1.81-0.35-3.44-1.05-4.85C210.35,177.85,209.32,176.71,208,175.91z M203.32,178.89c1.25,0,2.23,0.36,2.99,1.1
			c0.6,0.59,1.03,1.35,1.27,2.28h-9.08c0.29-0.91,0.77-1.67,1.44-2.25C200.79,179.27,201.93,178.89,203.32,178.89z"/>
		<path class="st3" d="M227.9,175.98c-1.45-0.85-3.1-1.28-4.88-1.28s-3.43,0.43-4.91,1.28c-1.48,0.85-2.65,2.03-3.49,3.51
			c-0.84,1.47-1.26,3.13-1.26,4.94c0,1.8,0.39,3.45,1.17,4.92c0.78,1.48,1.87,2.66,3.24,3.5c1.37,0.84,2.92,1.27,4.6,1.27
			c1.35,0,2.63-0.29,3.81-0.85c0.65-0.31,1.25-0.7,1.8-1.15c0.08,0.47,0.29,0.88,0.64,1.23c0.45,0.45,1.01,0.67,1.68,0.67
			c0.67,0,1.23-0.23,1.68-0.67c0.45-0.45,0.67-1.01,0.67-1.68v-7.24c0-1.8-0.43-3.46-1.28-4.94
			C230.52,178.01,229.36,176.83,227.9,175.98z M220.45,179.71c0.76-0.46,1.63-0.69,2.58-0.69s1.81,0.23,2.58,0.69
			c0.76,0.46,1.37,1.11,1.81,1.92c0.44,0.82,0.66,1.76,0.66,2.79c0,1.02-0.22,1.95-0.66,2.77c-0.44,0.81-1.04,1.45-1.81,1.91
			c-0.76,0.46-1.63,0.69-2.58,0.69c-0.95,0-1.82-0.23-2.58-0.69c-0.77-0.46-1.38-1.11-1.83-1.92c-0.45-0.81-0.68-1.74-0.68-2.76
			c0-1.02,0.23-1.96,0.68-2.78C219.07,180.83,219.68,180.18,220.45,179.71z"/>
		<path class="st3" d="M250.07,175.73L250.07,175.73c-1.29-0.7-2.75-1.06-4.36-1.06c-1.16,0-2.28,0.21-3.31,0.62
			c-0.61,0.24-1.18,0.55-1.7,0.91c-0.11-0.27-0.27-0.5-0.47-0.71c-0.44-0.44-1.01-0.66-1.69-0.66c-0.66,0-1.22,0.22-1.67,0.65
			c-0.45,0.44-0.68,1.01-0.68,1.7v14.48c0,0.67,0.23,1.23,0.67,1.68c0.45,0.45,1.01,0.67,1.68,0.67c0.69,0,1.27-0.23,1.7-0.68
			c0.43-0.45,0.65-1.01,0.65-1.67v-9.15c0-0.64,0.17-1.21,0.51-1.72c0.35-0.52,0.85-0.94,1.48-1.26c0.65-0.32,1.38-0.48,2.18-0.48
			c1.36,0,2.46,0.39,3.27,1.16c0.79,0.76,1.2,1.92,1.2,3.47v7.98c0,0.67,0.23,1.23,0.67,1.68c0.45,0.45,1.01,0.67,1.68,0.67
			c0.67,0,1.23-0.23,1.68-0.67c0.45-0.45,0.67-1.01,0.67-1.68v-7.98c0-1.86-0.37-3.48-1.09-4.83
			C252.41,177.49,251.37,176.44,250.07,175.73z"/>
	</g>
</g>
</svg>
