<?xml version="1.0" encoding="utf-8"?>
<!-- Generator: Adobe Illustrator 27.3.1, SVG Export Plug-In . SVG Version: 6.00 Build 0)  -->
<svg version="1.1" id="Layer_1" xmlns="http://www.w3.org/2000/svg" xmlns:xlink="http://www.w3.org/1999/xlink" x="0px" y="0px"
	 viewBox="0 0 500 500" style="enable-background:new 0 0 500 500;" xml:space="preserve">
<style type="text/css">
	.st0{fill:#EB3A6B;}
	.st1{fill:#434343;}
	.st2{fill:#D8D9D8;}
	.st3{fill:url(#SVGID_1_);}
	.st4{fill:url(#SVGID_00000168833756938261446490000004881726403835968919_);}
	.st5{fill:url(#SVGID_00000075124888088051738270000002582546354869408394_);}
	.st6{fill:url(#SVGID_00000180332627648352193800000007281713222649880196_);}
	.st7{fill:url(#SVGID_00000130618101915702479550000007488916777669690008_);}
	.st8{fill:url(#SVGID_00000168117818756364589400000013180738026798654352_);}
	.st9{fill:url(#SVGID_00000132071042276117623890000009272490382584815265_);}
	.st10{fill:url(#SVGID_00000029767510013675235010000002197173248716655293_);}
	.st11{fill:url(#SVGID_00000129176276087485884020000013752908598592275599_);}
	.st12{fill:url(#SVGID_00000103232421438124550960000009098004452807041460_);}
	.st13{fill:#FFFFFF;}
	.st14{fill:#FFFFFF;stroke:#010101;stroke-miterlimit:10;}
</style>
<g>
	<g>
		<g>
			<g>
				<path class="st0" d="M294.21,481.47l186.88-185.3c25.06-24.85,25.23-65.32,0.38-90.38L296.17,18.91
					c-24.85-25.06-65.32-25.24-90.38-0.38L18.91,203.83c-25.06,24.85-25.23,65.32-0.38,90.38l185.3,186.88
					C228.68,506.15,269.15,506.32,294.21,481.47z"/>
			</g>
		</g>
	</g>
	<g>
		<g>
			<g>
				<g>
					<path class="st1" d="M359.5,147.06v37.16h-9.39v-37.16c0-9.85-8.02-17.87-17.87-17.87h-31.57c-9.85,0-17.87,8.02-17.87,17.87
						v22.3h0.01v181.75c0,15.03-12.23,27.25-27.25,27.25h-14.4v-9.39h14.4c9.85,0,17.86-8.01,17.86-17.86V173.07h-0.01v-26.01
						c0-15.03,12.23-27.25,27.26-27.25h31.57C347.27,119.81,359.5,132.03,359.5,147.06z"/>
				</g>
			</g>
			<g>
				<g>
					<path class="st1" d="M375.82,372.71c-1-0.62-24.56-15.41-24.56-32.61V224.15h6.26V340.1c0,13.71,21.39,27.15,21.6,27.29
						L375.82,372.71z"/>
				</g>
			</g>
			<g>
				<path class="st2" d="M359.08,196.13v32.15c0,1.38-0.6,2.62-1.56,3.48c-0.83,0.76-1.93,1.22-3.13,1.22s-2.3-0.46-3.13-1.21
					c-0.96-0.86-1.57-2.11-1.57-3.49v-32.15H359.08z"/>
			</g>
			<g>
				<linearGradient id="SVGID_1_" gradientUnits="userSpaceOnUse" x1="161.48" y1="123.345" x2="234.87" y2="123.345">
					<stop  offset="0" style="stop-color:#12497F"/>
					<stop  offset="1" style="stop-color:#1C2B58"/>
				</linearGradient>
				<path class="st3" d="M219.69,96.83h-43.03c-8.37,0-15.18,6.81-15.18,15.18v15.59c0,8.37,6.81,15.19,15.18,15.19h12.22v7.07
					c0.52-0.05,1.06-0.08,1.6-0.08h15.55c0.49,0,0.97,0.02,1.44,0.06v-7.05h12.22c8.37,0,15.18-6.82,15.18-15.19v-15.59
					C234.87,103.64,228.06,96.83,219.69,96.83z M225.48,127.6c0,3.19-2.6,5.8-5.79,5.8h-43.03c-3.2,0-5.79-2.61-5.79-5.8v-15.59
					c0-3.19,2.59-5.8,5.79-5.8h43.03c3.19,0,5.79,2.61,5.79,5.8V127.6z"/>
			</g>
			<g>
				<rect x="345.39" y="184.22" class="st1" width="18" height="11.91"/>
			</g>
			<g>
				
					<linearGradient id="SVGID_00000075125874203964774430000015261250790919873944_" gradientUnits="userSpaceOnUse" x1="175.45" y1="156.105" x2="221.04" y2="156.105">
					<stop  offset="0" style="stop-color:#12497F"/>
					<stop  offset="1" style="stop-color:#1C2B58"/>
				</linearGradient>
				<path style="fill:url(#SVGID_00000075125874203964774430000015261250790919873944_);" d="M221.04,162.39
					c-1.68-0.36-3.49-0.57-5.46-0.57h-4.5c0,0-0.02,0-25.44,0h-4.5c-2.05,0-3.95,0.21-5.69,0.61c1.18-6.64,6.64-11.85,13.43-12.57
					c0.52-0.05,1.06-0.08,1.6-0.08h15.55c0.49,0,0.97,0.02,1.44,0.06C214.31,150.5,219.84,155.71,221.04,162.39z"/>
				
					<linearGradient id="SVGID_00000170252606040389571000000000886599825286141316_" gradientUnits="userSpaceOnUse" x1="175.42" y1="162.2" x2="221.08" y2="162.2">
					<stop  offset="0" style="stop-color:#12497F"/>
					<stop  offset="1" style="stop-color:#1C2B58"/>
				</linearGradient>
				<path style="fill:url(#SVGID_00000170252606040389571000000000886599825286141316_);" d="M221.08,162.58h-45.66l0.03-0.15
					c1.74-0.4,3.64-0.61,5.69-0.61h4.5c25.42,0,25.44,0,25.44,0h4.5c1.97,0,3.78,0.21,5.46,0.57
					C221.06,162.45,221.07,162.52,221.08,162.58z"/>
			</g>
			<g>
				<g>
					<g>
						
							<linearGradient id="SVGID_00000004543573707007994640000018319183151863725230_" gradientUnits="userSpaceOnUse" x1="155.56" y1="280.94" x2="241.16" y2="280.94">
							<stop  offset="0" style="stop-color:#12497F"/>
							<stop  offset="1" style="stop-color:#1C2B58"/>
						</linearGradient>
						<path style="fill:url(#SVGID_00000004543573707007994640000018319183151863725230_);" d="M241.04,206.62h-85.36
							c0,0-0.06-0.6-0.12-1.65v151.96h85.6V204.95C241.1,206,241.04,206.62,241.04,206.62z M167.73,213.39h54.59v5.24h-54.59V213.39
							z M167.73,227.63h54.59v5.24h-54.59V227.63z M222.32,334.64c-5.86,8.4-15.59,13.9-26.58,13.9
							c-17.86,0-32.39-14.53-32.39-32.39c0-17.86,14.53-32.4,32.39-32.4c10.99,0,20.72,5.51,26.58,13.91
							c3.66,5.25,5.81,11.62,5.81,18.49S225.98,329.39,222.32,334.64z"/>
						
							<linearGradient id="SVGID_00000016048582914785278530000012832390886550130863_" gradientUnits="userSpaceOnUse" x1="155.56" y1="204.995" x2="222.32" y2="204.995">
							<stop  offset="0" style="stop-color:#12497F"/>
							<stop  offset="1" style="stop-color:#1C2B58"/>
						</linearGradient>
						<path style="fill:url(#SVGID_00000016048582914785278530000012832390886550130863_);" d="M222.32,203.37v3.25h-66.64
							c0,0-0.06-0.6-0.12-1.65v-1.6H222.32z"/>
						
							<linearGradient id="SVGID_00000055675331489422843770000014852547467234782891_" gradientUnits="userSpaceOnUse" x1="167.73" y1="216.01" x2="222.32" y2="216.01">
							<stop  offset="0" style="stop-color:#12497F"/>
							<stop  offset="1" style="stop-color:#1C2B58"/>
						</linearGradient>
						
							<rect x="167.73" y="213.39" style="fill:url(#SVGID_00000055675331489422843770000014852547467234782891_);" width="54.59" height="5.24"/>
						
							<linearGradient id="SVGID_00000049211853463016556940000009030161854300000155_" gradientUnits="userSpaceOnUse" x1="167.73" y1="230.25" x2="222.32" y2="230.25">
							<stop  offset="0" style="stop-color:#12497F"/>
							<stop  offset="1" style="stop-color:#1C2B58"/>
						</linearGradient>
						
							<rect x="167.73" y="227.63" style="fill:url(#SVGID_00000049211853463016556940000009030161854300000155_);" width="54.59" height="5.24"/>
						
							<linearGradient id="SVGID_00000181079579118698347360000005119142271477402793_" gradientUnits="userSpaceOnUse" x1="163.35" y1="316.145" x2="222.32" y2="316.145">
							<stop  offset="0" style="stop-color:#12497F"/>
							<stop  offset="1" style="stop-color:#1C2B58"/>
						</linearGradient>
						<path style="fill:url(#SVGID_00000181079579118698347360000005119142271477402793_);" d="M222.32,297.66v36.98
							c-5.86,8.4-15.59,13.9-26.58,13.9c-17.86,0-32.39-14.53-32.39-32.39c0-17.86,14.53-32.4,32.39-32.4
							C206.73,283.75,216.46,289.26,222.32,297.66z"/>
					</g>
					<g>
						
							<linearGradient id="SVGID_00000034089173720296883340000014800563087882868140_" gradientUnits="userSpaceOnUse" x1="222.32" y1="316.15" x2="228.13" y2="316.15">
							<stop  offset="0" style="stop-color:#12497F"/>
							<stop  offset="1" style="stop-color:#1C2B58"/>
						</linearGradient>
						<path style="fill:url(#SVGID_00000034089173720296883340000014800563087882868140_);" d="M222.32,297.66
							c3.66,5.25,5.81,11.62,5.81,18.49s-2.15,13.24-5.81,18.49V297.66z"/>
						
							<linearGradient id="SVGID_00000158727571939849181220000009711081945675032450_" gradientUnits="userSpaceOnUse" x1="222.32" y1="204.995" x2="241.16" y2="204.995">
							<stop  offset="0" style="stop-color:#12497F"/>
							<stop  offset="1" style="stop-color:#1C2B58"/>
						</linearGradient>
						<path style="fill:url(#SVGID_00000158727571939849181220000009711081945675032450_);" d="M241.16,203.37v1.58
							c-0.06,1.05-0.12,1.67-0.12,1.67h-18.72v-3.25H241.16z"/>
					</g>
					<g>
						<rect x="155.56" y="356.93" class="st1" width="85.6" height="26.23"/>
					</g>
				</g>
				<g>
					<g>
						<path class="st1" d="M221.08,162.58h-45.66l0.03-0.15c1.74-0.4,3.64-0.61,5.69-0.61h4.5c25.42,0,25.44,0,25.44,0h4.5
							c1.97,0,3.78,0.21,5.46,0.57C221.06,162.45,221.07,162.52,221.08,162.58z"/>
						<path class="st1" d="M222.32,203.37v3.25h-66.64c0,0-0.06-0.6-0.12-1.65v-1.6H222.32z"/>
					</g>
					<g>
						<path class="st1" d="M241.16,204.95v-8.82C241.36,199.97,241.26,203.14,241.16,204.95z"/>
					</g>
					<g>
						<path class="st1" d="M241.16,196.13v7.24h-85.6v1.6c-0.42-7.45-0.84-37.87,19.89-42.54l-0.03,0.15h45.66
							c-0.01-0.06-0.02-0.13-0.04-0.19c0.44,0.1,0.86,0.2,1.28,0.32C237.09,166.83,240.54,184.49,241.16,196.13z"/>
						<path class="st1" d="M241.16,203.37v1.58c-0.06,1.05-0.12,1.67-0.12,1.67h-18.72v-3.25H241.16z"/>
					</g>
				</g>
			</g>
			<g>
				<rect x="167.73" y="213.39" class="st13" width="54.59" height="5.24"/>
			</g>
			<g>
				<rect x="167.73" y="227.63" class="st13" width="54.59" height="5.24"/>
			</g>
		</g>
		<g>
			<ellipse class="st1" cx="195.77" cy="316.79" rx="30.54" ry="30.45"/>
		</g>
		<g>
			<path class="st14" d="M208.83,320.63c-1.31-0.65-2.46-2.05-3.08-2.91c0.2-0.74-0.05-1.42-0.59-1.41c-0.31,0-0.98,0.17-1.63,0.36
				c-0.03-0.15-0.05-0.3-0.08-0.46c-0.29-1.56-0.69-3.01-1.1-4.3c0.34-0.15,0.63-0.35,0.85-0.57c0.75,0.97,1.99,2.45,3.3,3.46
				c2.11,1.62,4.75,1.28,4.82,0.24c0.06-0.87-2.46-0.87-4.42-1.84c-1.31-0.65-2.46-2.05-3.08-2.91c0.2-0.74-0.05-1.42-0.59-1.41
				c-0.34,0.01-1.12,0.21-1.82,0.41c-0.62-1.54-1.11-2.49-1.15-2.56c0.01-0.01,0.02-0.01,0.02-0.01s-0.11-0.74-0.42-1.71
				c-0.23-0.7-0.56-1.53-1.05-2.28c0.35-0.38,0.87-0.88,1.56-1.35c1.35-0.9,3.11-2.23,3.82-4.1c0.66-1.74,1.13-3.93,1.15-4.93
				c0.03-1.49-0.9-1.37-0.9,0c0,1.57-0.87,4.55-1.94,5.74c-1.62,1.78-4.07,2.9-4.98,3.2c-0.68-0.53-1.52-0.88-2.55-0.88
				c-0.64,0-1.19,0.11-1.67,0.31c-0.29,0.12-0.55,0.27-0.79,0.44c-1.09-0.43-3.17-1.48-4.61-3.06c-1.08-1.19-1.94-4.17-1.94-5.74
				c0-1.37-0.93-1.49-0.9,0c0.02,1.01,0.49,3.2,1.15,4.93c0.71,1.87,2.47,3.2,3.82,4.1c0.52,0.35,0.95,0.72,1.27,1.04
				c-1.2,1.85-1.27,4.3-1.27,4.3s-0.53,1.01-1.18,2.64c-0.75-0.22-1.65-0.47-2.02-0.47c-0.54-0.01-0.8,0.67-0.59,1.41
				c-0.62,0.86-1.77,2.26-3.08,2.91c-1.96,0.97-4.48,0.97-4.42,1.84c0.07,1.04,2.71,1.38,4.82-0.24c1.32-1.01,2.56-2.49,3.3-3.46
				c0.26,0.26,0.61,0.49,1.04,0.65c-0.4,1.26-0.79,2.69-1.08,4.21c-0.03,0.18-0.06,0.34-0.09,0.52c-0.71-0.21-1.5-0.41-1.85-0.42
				c-0.54-0.01-0.8,0.67-0.59,1.41c-0.62,0.86-1.77,2.26-3.08,2.91c-1.96,0.97-4.48,0.97-4.42,1.84c0.07,1.04,2.71,1.38,4.82-0.24
				c1.32-1.01,2.56-2.49,3.3-3.46c0.26,0.26,0.61,0.49,1.04,0.65c0.12,0.05,0.24,0.08,0.35,0.1c-0.15,1.26-0.25,2.46-0.31,3.6
				c0,0,0-0.01,0-0.01s0,0.02,0,0.06c0,0.01,0,0.02,0,0.03c-0.76,0.06-1.61,0.16-1.95,0.28c-0.51,0.19-0.5,0.91-0.04,1.53
				c-0.27,1.02-0.83,2.74-1.82,3.82c-1.48,1.61-3.82,2.52-3.46,3.31c0.44,0.94,3.03,0.31,4.41-1.96c0.86-1.42,1.48-3.25,1.83-4.42
				c0.29,0.13,0.62,0.21,1,0.22c0.03,1.53,0.13,2.95,0.29,4.25l0,0c0,0-0.01,0.78,0.28,1.91c0.22,1.33,0.48,2.53,0.74,3.61
				c0.25,1.08,0.95,2.67,1.99,4.14c1.37,1.93,3.33,3.67,5.7,3.79v0.01c0.02,0,0.04,0,0.06,0c0.04,0,0.07,0,0.11,0
				c0.04,0,0.07,0,0.11,0c0.02,0,0.04,0,0.06,0v-0.01c4.16-0.22,7.1-5.43,7.69-7.93c0.28-1.18,0.56-2.51,0.8-3.99
				c0.24-1.05,0.24-1.76,0.24-1.76l0,0c0.14-1.24,0.23-2.59,0.26-4.04c0.29-0.03,0.55-0.11,0.78-0.21c0.35,1.17,0.97,3,1.83,4.42
				c1.38,2.27,3.97,2.91,4.41,1.96c0.37-0.8-1.98-1.7-3.46-3.31c-0.99-1.08-1.55-2.8-1.82-3.82c0.46-0.62,0.47-1.34-0.04-1.53
				c-0.3-0.11-1.02-0.2-1.71-0.26c0.01-0.07,0.01-0.11,0.01-0.11s-0.01,0.02-0.02,0.06c-0.05-1.17-0.16-2.41-0.32-3.71
				c0.05-0.01,0.09-0.02,0.14-0.04c0.44-0.16,0.78-0.39,1.04-0.65c0.75,0.97,1.99,2.45,3.3,3.46c2.11,1.62,4.75,1.28,4.82,0.24
				C213.3,321.6,210.78,321.6,208.83,320.63z"/>
		</g>
		<g>
			<g>
				<path class="st13" d="M222.32,297.66c-5.86-8.4-15.59-13.91-26.58-13.91c-17.86,0-32.39,14.54-32.39,32.4
					c0,17.86,14.53,32.39,32.39,32.39c10.99,0,20.72-5.5,26.58-13.9c3.66-5.25,5.81-11.62,5.81-18.49S225.98,302.91,222.32,297.66z
					 M176.27,337.96c-0.78-0.68-1.52-1.42-2.22-2.2c-4.71-5.19-7.57-12.07-7.57-19.61c0-16.14,13.12-29.27,29.26-29.27
					c7.73,0,14.75,3.01,19.99,7.92c0.77,0.71,1.49,1.47,2.16,2.26c1.79,2.06,3.29,4.37,4.43,6.87c1.72,3.72,2.68,7.86,2.68,12.22
					c0,4.36-0.96,8.49-2.68,12.21c-4.62,10.05-14.8,17.05-26.58,17.05C188.27,345.41,181.45,342.6,176.27,337.96z"/>
			</g>
		</g>
		<g>
			<g>
				
					<rect x="165.16" y="314.83" transform="matrix(0.7129 -0.7012 0.7012 0.7129 -165.6072 228.2469)" class="st13" width="61.64" height="3.13"/>
			</g>
		</g>
	</g>
</g>
</svg>
