<?xml version="1.0" encoding="utf-8"?>
<!-- Generator: Adobe Illustrator 27.3.1, SVG Export Plug-In . SVG Version: 6.00 Build 0)  -->
<svg version="1.1" id="Layer_1" xmlns="http://www.w3.org/2000/svg" xmlns:xlink="http://www.w3.org/1999/xlink" x="0px" y="0px"
	 viewBox="0 0 984 1080" style="enable-background:new 0 0 984 1080;" xml:space="preserve">
<style type="text/css">
	.st0{fill:#FFCD01;}
	.st1{clip-path:url(#SVGID_00000020390218148590336520000010272653349090213294_);}
	.st2{fill:#51ADFC;}
	.st3{fill:none;stroke:#51ADFC;stroke-width:7;stroke-miterlimit:10;}
	.st4{fill:#0F2959;}
	.st5{fill:#EB386A;}
	.st6{fill:url(#SVGID_00000158745918854459236480000004661027431732874661_);}
	.st7{fill:#34332F;}
	.st8{fill:url(#SVGID_00000068641880018049126170000008056806949433160631_);}
	.st9{fill:url(#SVGID_00000027595036938908530510000004079044790359579027_);}
	.st10{fill:url(#SVGID_00000132779119158814161810000016040276318564616625_);}
	.st11{fill:url(#SVGID_00000060709528597419859470000008257462240290105491_);}
	.st12{fill:url(#SVGID_00000131361741879096646240000010037051178663548551_);}
	.st13{fill:url(#SVGID_00000165205577192268208110000004582665260353963398_);}
	.st14{fill:url(#SVGID_00000112629511112658673510000003194841651619291295_);}
	.st15{fill:url(#SVGID_00000115474627224697979380000010783989652297090434_);}
	.st16{fill:url(#SVGID_00000036210439509908931020000007689411454395061120_);}
	.st17{fill:url(#SVGID_00000000939188718959323110000013366637246270697370_);}
	.st18{fill:url(#SVGID_00000027575024474734630390000015763064797439115455_);}
	.st19{fill:url(#SVGID_00000047761555060670379740000001906844658662618797_);}
	.st20{fill:url(#SVGID_00000101822734078130822150000013185448993301920174_);}
	.st21{fill:url(#SVGID_00000153685165296017808440000017871046532838120327_);}
	.st22{opacity:0.1;fill:#34332F;}
	.st23{fill:url(#SVGID_00000115507884896705927270000018202851164554403232_);}
	.st24{fill:url(#SVGID_00000167395082082564419630000013187793210626824627_);}
	.st25{fill:url(#SVGID_00000015349065308998593000000015219086782083645076_);}
</style>
<path class="st0" d="M788.85,873.58l110.13-110.13c14.77-14.77,14.77-38.72,0-53.49L788.85,599.84c-14.77-14.77-38.72-14.77-53.49,0
	L625.23,709.97c-14.77,14.77-14.77,38.72,0,53.49l110.13,110.13C750.13,888.35,774.08,888.35,788.85,873.58z"/>
<g>
	<defs>
		<path id="SVGID_1_" d="M242.24,868.65l112.4-112.4c15.07-15.07,15.07-39.52,0-54.59l-112.4-112.4
			c-15.07-15.07-39.52-15.07-54.59,0l-112.4,112.4c-15.07,15.07-15.07,39.52,0,54.59l112.4,112.4
			C202.73,883.73,227.17,883.73,242.24,868.65z"/>
	</defs>
	<clipPath id="SVGID_00000122689983246317509600000000921023687751671966_">
		<use xlink:href="#SVGID_1_"  style="overflow:visible;"/>
	</clipPath>
	<g style="clip-path:url(#SVGID_00000122689983246317509600000000921023687751671966_);">
		
			<rect x="178.36" y="431.57" transform="matrix(0.7071 0.7071 -0.7071 0.7071 545.4114 75.1761)" class="st2" width="7.2" height="528.8"/>
		
			<rect x="211.35" y="464.56" transform="matrix(0.7071 0.7071 -0.7071 0.7071 578.4013 61.511)" class="st2" width="7.2" height="528.8"/>
		
			<rect x="244.34" y="497.55" transform="matrix(0.7071 0.7071 -0.7071 0.7071 611.3983 47.8495)" class="st2" width="7.2" height="528.8"/>
		
			<rect x="277.33" y="530.54" transform="matrix(0.7071 0.7071 -0.7071 0.7071 644.3887 34.1845)" class="st2" width="7.2" height="528.8"/>
		
			<rect x="145.37" y="398.58" transform="matrix(0.7071 0.7071 -0.7071 0.7071 512.4214 88.8412)" class="st2" width="7.2" height="528.8"/>
		
			<rect x="161.86" y="415.07" transform="matrix(0.7071 0.7071 -0.7071 0.7071 528.9164 82.0086)" class="st2" width="7.2" height="528.8"/>
		
			<rect x="194.85" y="448.06" transform="matrix(0.7071 0.7071 -0.7071 0.7071 561.9054 68.343)" class="st2" width="7.2" height="528.8"/>
		
			<rect x="227.84" y="481.05" transform="matrix(0.7071 0.7071 -0.7071 0.7071 594.9031 54.6821)" class="st2" width="7.2" height="528.8"/>
		
			<rect x="260.83" y="514.04" transform="matrix(0.7071 0.7071 -0.7071 0.7071 627.8934 41.017)" class="st2" width="7.2" height="528.8"/>
		
			<rect x="293.82" y="547.04" transform="matrix(0.7071 0.7071 -0.7071 0.7071 660.8839 27.3519)" class="st2" width="7.2" height="528.8"/>
		
			<rect x="128.87" y="382.08" transform="matrix(0.7071 0.7071 -0.7071 0.7071 495.9265 95.6737)" class="st2" width="7.2" height="528.8"/>
	</g>
</g>
<path class="st3" d="M404.47,507.74l152.67-152.67c20.48-20.48,20.48-53.67,0-74.15L404.47,128.25c-20.48-20.48-53.67-20.48-74.15,0
	L177.65,280.92c-20.48,20.48-20.48,53.67,0,74.15l152.67,152.67C350.8,528.22,384,528.22,404.47,507.74z"/>
<path class="st4" d="M574.54,982.79l293.02-293.02c39.3-39.3,39.3-103.02,0-142.31L574.54,254.43c-39.3-39.3-103.01-39.3-142.31,0
	L139.21,547.45c-39.3,39.3-39.3,103.01,0,142.31l293.02,293.02C471.53,1022.08,535.24,1022.08,574.54,982.79z"/>
<g>
	<g>
		<path class="st5" d="M278.43,552.3l103.38-103.38c13.86-13.86,13.86-36.34,0-50.21L278.43,295.33
			c-13.86-13.86-36.34-13.86-50.21,0L124.85,398.71c-13.86,13.86-13.86,36.34,0,50.21L228.23,552.3
			C242.09,566.16,264.57,566.16,278.43,552.3z"/>
		<g>
			<g>
				
					<linearGradient id="SVGID_00000018208802588352186010000012899963033286617494_" gradientUnits="userSpaceOnUse" x1="232.0338" y1="57.7197" x2="248.8241" y2="86.8013" gradientTransform="matrix(1 0 0 1 2.9303 269.0057)">
					<stop  offset="0" style="stop-color:#F75606"/>
					<stop  offset="1" style="stop-color:#E24101"/>
				</linearGradient>
				<path style="fill:url(#SVGID_00000018208802588352186010000012899963033286617494_);" d="M224.39,343.94
					c0,0,8.58-25.78,24.64-19.69l4.47,2.1c0,0,14.9,7.35-3.14,30.25L224.39,343.94z"/>
				<g>
					
						<rect x="234.44" y="327.84" transform="matrix(0.899 0.4379 -0.4379 0.899 171.1013 -69.0546)" class="st7" width="1.66" height="17.21"/>
					
						<rect x="239.78" y="330.45" transform="matrix(0.899 0.4379 -0.4379 0.899 172.7794 -71.1301)" class="st7" width="1.66" height="17.21"/>
					
						<rect x="245.12" y="333.05" transform="matrix(0.899 0.4379 -0.4379 0.899 174.4576 -73.2055)" class="st7" width="1.66" height="17.21"/>
					
						<rect x="250.46" y="335.65" transform="matrix(0.899 0.4379 -0.4379 0.899 176.1357 -75.281)" class="st7" width="1.66" height="17.21"/>
				</g>
			</g>
			<g>
				
					<linearGradient id="SVGID_00000046327823362415254010000017288040421172148864_" gradientUnits="userSpaceOnUse" x1="253.3801" y1="74.9364" x2="253.3801" y2="249.8241" gradientTransform="matrix(1 0 0 1 2.9303 269.0057)">
					<stop  offset="0" style="stop-color:#52A723"/>
					<stop  offset="1" style="stop-color:#5CCB24"/>
				</linearGradient>
				<path style="fill:url(#SVGID_00000046327823362415254010000017288040421172148864_);" d="M292.27,408.45
					c0.48,10.47,8.36,63.79,4.18,89.04c-3.78,22.88-21.47,21.31-21.47,21.31h-15.63h-15.63c0,0-17.69,1.57-21.47-21.31
					c-4.18-25.25,2.57-74.3,4.29-84.64c1.72-10.34,4.77-17.15-6.03-29.72c-14.49-16.87,3.88-39.2,3.88-39.2l25.97,12.67
					c0,0-3.82,5.43-2.7,9.58C249.54,373.1,290.83,377.21,292.27,408.45z"/>
				
					<linearGradient id="SVGID_00000049914660993865534290000001793692985872649627_" gradientUnits="userSpaceOnUse" x1="256.3607" y1="228.6593" x2="256.3607" y2="148.5649" gradientTransform="matrix(1 0 0 1 2.9303 269.0057)">
					<stop  offset="0" style="stop-color:#EDCAA0"/>
					<stop  offset="0.2156" style="stop-color:#EECCA5"/>
					<stop  offset="0.4618" style="stop-color:#EFD3B3"/>
					<stop  offset="0.7231" style="stop-color:#F2DDCA"/>
					<stop  offset="0.9934" style="stop-color:#F6ECEA"/>
					<stop  offset="1" style="stop-color:#F6EDEB"/>
				</linearGradient>
				
					<ellipse style="fill:url(#SVGID_00000049914660993865534290000001793692985872649627_);" cx="259.29" cy="457.62" rx="18.46" ry="40.05"/>
			</g>
		</g>
	</g>
	<g>
		<path class="st5" d="M528.29,335.11l103.38-103.38c13.86-13.86,13.86-36.34,0-50.21L528.29,78.14
			c-13.86-13.86-36.34-13.86-50.21,0L374.7,181.52c-13.86,13.86-13.86,36.34,0,50.21l103.38,103.38
			C491.94,348.97,514.42,348.97,528.29,335.11z"/>
		<g>
			<g>
				
					<linearGradient id="SVGID_00000005965325805772204820000011423117953306638526_" gradientUnits="userSpaceOnUse" x1="-3527.6255" y1="971.5642" x2="-3527.6255" y2="855.1151" gradientTransform="matrix(1 0 0 1 4030.8079 -680.6362)">
					<stop  offset="0" style="stop-color:#EDCAA0"/>
					<stop  offset="1" style="stop-color:#F6EDEB"/>
				</linearGradient>
				<path style="fill:url(#SVGID_00000005965325805772204820000011423117953306638526_);" d="M425.64,174.48
					c-0.12,0.61-0.19,1.24-0.19,1.88c0,5.14,4.17,9.3,9.3,9.3h7.38c18.26,0.86,56.69,4.84,56.69,23.13v82.13h8.71V208.8
					c0-18.3,38.43-22.27,56.69-23.13h7.38c0.7,0,1.39-0.08,2.04-0.23c4.15-0.93,7.26-4.64,7.26-9.07c0-0.64-0.07-1.27-0.19-1.88
					H425.64z"/>
				
					<linearGradient id="SVGID_00000051358861047691542360000007762397057786724507_" gradientUnits="userSpaceOnUse" x1="-3527.6255" y1="829.7975" x2="-3527.6255" y2="855.1151" gradientTransform="matrix(1 0 0 1 4030.8079 -680.6362)">
					<stop  offset="0" style="stop-color:#084780"/>
					<stop  offset="1" style="stop-color:#0F2959"/>
				</linearGradient>
				<path style="fill:url(#SVGID_00000051358861047691542360000007762397057786724507_);" d="M576.64,149.16H429.72
					c-2.25,0-4.08,1.83-4.08,4.09v6.34v10.81v4.08h4.08h146.92h4.08v-4.08v-10.81v-6.34C580.72,150.99,578.9,149.16,576.64,149.16z"
					/>
				
					<linearGradient id="SVGID_00000044176401817892267560000003614048569916259246_" gradientUnits="userSpaceOnUse" x1="-3527.6255" y1="835.9366" x2="-3527.6255" y2="829.7975" gradientTransform="matrix(1 0 0 1 4030.8079 -680.6362)">
					<stop  offset="0" style="stop-color:#52A723"/>
					<stop  offset="1" style="stop-color:#5CCB24"/>
				</linearGradient>
				<path style="fill:url(#SVGID_00000044176401817892267560000003614048569916259246_);" d="M576.64,149.16H429.72
					c-2.25,0-4.08,1.83-4.08,4.09v2.05h155.08v-2.05C580.72,150.99,578.9,149.16,576.64,149.16z"/>
			</g>
			
				<linearGradient id="SVGID_00000018239267151970134300000001191067427141648520_" gradientUnits="userSpaceOnUse" x1="1432.9407" y1="2381.7092" x2="1432.9407" y2="2305.9297" gradientTransform="matrix(-1 0 0 -1 1936.123 2614.2119)">
				<stop  offset="0" style="stop-color:#FFFFFF"/>
				<stop  offset="1" style="stop-color:#F6EDEB"/>
			</linearGradient>
			<path style="fill:url(#SVGID_00000018239267151970134300000001191067427141648520_);" d="M491.73,232.5v64.33
				c0,6.32,5.13,11.45,11.45,11.45l0,0c6.32,0,11.45-5.13,11.45-11.45V232.5H491.73z"/>
		</g>
	</g>
	<g>
		<path class="st5" d="M778.14,552.3l103.38-103.38c13.86-13.86,13.86-36.34,0-50.21L778.14,295.33
			c-13.86-13.86-36.34-13.86-50.21,0L624.55,398.71c-13.86,13.86-13.86,36.34,0,50.21L727.93,552.3
			C741.8,566.16,764.27,566.16,778.14,552.3z"/>
		<g>
			
				<linearGradient id="SVGID_00000170966861986641678630000009666902099478485679_" gradientUnits="userSpaceOnUse" x1="619.9595" y1="443.4174" x2="620.4809" y2="611.0579" gradientTransform="matrix(-1 3.100000e-03 3.100000e-03 1 1361.3608 -107.1717)">
				<stop  offset="0" style="stop-color:#52A723"/>
				<stop  offset="1" style="stop-color:#5CCB24"/>
			</linearGradient>
			<path style="fill:url(#SVGID_00000170966861986641678630000009666902099478485679_);" d="M688.04,408.07L688.04,408.07
				c2.59-2.8,6.77-3.42,10.06-1.51l17.51,7.49l-0.49-26.66l0,0l-0.56-42.57c0.32-3.29,3.08-5.8,6.39-5.81l0,0
				c3.31-0.01,6.08,2.48,6.42,5.77l8.44,45.94l0,0l3.36-46.75c0.32-3.29,3.07-5.8,6.38-5.81l0,0c3.3-0.01,6.08,2.49,6.41,5.77
				l5.53,46.73l0,0l6.54-45.4c0.32-3.29,3.08-5.8,6.39-5.81l0,0c3.31-0.01,6.08,2.48,6.42,5.77l4.66,45.37l4.98-30.45
				c0.43-3.3,3.24-5.78,6.57-5.79c3.33-0.01,6.16,2.45,6.6,5.75l-3.07,31.31h0l-6.83,114.18l-31.91,0.1l-38.23,0.12l-3.08-56.91
				l-29.24-30.68C685.15,415.09,685.45,410.87,688.04,408.07z"/>
			<polygon class="st4" points="717.91,473.92 719.63,505.81 757.86,505.69 789.77,505.59 791.68,473.69 			"/>
		</g>
	</g>
</g>
<g>
	<g>
		<path class="st5" d="M521.09,820.96H357.17c-9.87,0-17.87-8-17.87-17.87v-87.61c0-9.87,8-17.87,17.87-17.87h163.92
			c9.87,0,17.87,8,17.87,17.87v87.61C538.97,812.95,530.96,820.96,521.09,820.96z"/>
		<circle class="st5" cx="439.13" cy="679.45" r="54.13"/>
		<g>
			
				<linearGradient id="SVGID_00000062875949254012683890000011201977586823561623_" gradientUnits="userSpaceOnUse" x1="439.1314" y1="820.9567" x2="439.1314" y2="657.4583">
				<stop  offset="0" style="stop-color:#52A723"/>
				<stop  offset="1" style="stop-color:#5CCB24"/>
			</linearGradient>
			<path style="fill:url(#SVGID_00000062875949254012683890000011201977586823561623_);" d="M491.11,657.46H387.16
				c-13.97,0-25.3,11.33-25.3,25.3v112.9c0,13.97,11.33,25.3,25.3,25.3h103.95c13.97,0,25.3-11.33,25.3-25.3v-112.9
				C516.41,668.79,505.08,657.46,491.11,657.46z"/>
			<g>
				
					<rect x="435.92" y="704.65" transform="matrix(-1.836970e-16 1 -1 -1.836970e-16 1183.2028 307.6902)" class="st7" width="3.68" height="81.59"/>
				
					<rect x="435.92" y="717.83" transform="matrix(-1.836970e-16 1 -1 -1.836970e-16 1196.3849 320.8723)" class="st7" width="3.68" height="81.59"/>
				
					<rect x="435.92" y="731.02" transform="matrix(-1.836970e-16 1 -1 -1.836970e-16 1209.5669 334.0544)" class="st7" width="3.68" height="81.59"/>
				
					<rect x="435.92" y="744.2" transform="matrix(-1.836970e-16 1 -1 -1.836970e-16 1222.749 347.2365)" class="st7" width="3.68" height="81.59"/>
				
					<rect x="435.92" y="757.38" transform="matrix(-1.836970e-16 1 -1 -1.836970e-16 1235.9312 360.4186)" class="st7" width="3.68" height="81.59"/>
			</g>
			
				<ellipse transform="matrix(0.9239 -0.3827 0.3827 0.9239 -234.7126 220.8376)" class="st5" cx="437.76" cy="700.41" rx="25.86" ry="25.86"/>
		</g>
	</g>
	<g>
		
			<linearGradient id="SVGID_00000108286376240063458800000007745113810724430229_" gradientUnits="userSpaceOnUse" x1="577.783" y1="791.5959" x2="577.783" y2="771.8107">
			<stop  offset="0.0197" style="stop-color:#F1A800"/>
			<stop  offset="1" style="stop-color:#FFCD01"/>
		</linearGradient>
		<path style="fill:url(#SVGID_00000108286376240063458800000007745113810724430229_);" d="M599.49,791.6h-43.42
			c-5.46,0-9.89-4.43-9.89-9.89l0,0c0-5.46,4.43-9.89,9.89-9.89h43.42c5.46,0,9.89,4.43,9.89,9.89l0,0
			C609.38,787.17,604.95,791.6,599.49,791.6z"/>
		<g>
			
				<linearGradient id="SVGID_00000048461904091184305160000011323011592517803962_" gradientUnits="userSpaceOnUse" x1="577.783" y1="784.3238" x2="577.783" y2="820.9567">
				<stop  offset="0" style="stop-color:#F75606"/>
				<stop  offset="1" style="stop-color:#E24101"/>
			</linearGradient>
			<path style="fill:url(#SVGID_00000048461904091184305160000011323011592517803962_);" d="M651.17,784.32H504.4
				c-8.78,0-15.9,7.12-15.9,15.9v11.31v-6.48v15.9h15.9h146.77h15.9v-15.9v6.48v-11.31C667.07,791.44,659.95,784.32,651.17,784.32z"
				/>
		</g>
	</g>
	<g>
		
			<linearGradient id="SVGID_00000133512268372277452310000012161492187612278426_" gradientUnits="userSpaceOnUse" x1="577.6474" y1="567.018" x2="577.6474" y2="771.8107">
			<stop  offset="0" style="stop-color:#F75606"/>
			<stop  offset="1" style="stop-color:#E24101"/>
		</linearGradient>
		
			<rect x="569.02" y="567.02" style="fill:url(#SVGID_00000133512268372277452310000012161492187612278426_);" width="17.25" height="204.79"/>
		
			<linearGradient id="SVGID_00000015352687916325527190000005466396949140985233_" gradientUnits="userSpaceOnUse" x1="577.6473" y1="571.929" x2="577.6473" y2="486.8417">
			<stop  offset="0" style="stop-color:#52A723"/>
			<stop  offset="1" style="stop-color:#5CCB24"/>
		</linearGradient>
		<path style="fill:url(#SVGID_00000015352687916325527190000005466396949140985233_);" d="M583.53,571.93h-11.77
			c-8.75,0-15.84-7.09-15.84-15.84v-53.42c0-8.75,7.09-15.84,15.84-15.84h11.77c8.75,0,15.84,7.09,15.84,15.84v53.42
			C599.37,564.84,592.28,571.93,583.53,571.93z"/>
		
			<linearGradient id="SVGID_00000111176024039363522170000001969161767309053626_" gradientUnits="userSpaceOnUse" x1="508.4562" y1="626.5519" x2="508.4562" y2="407.1841">
			<stop  offset="0" style="stop-color:#EDCAA0"/>
			<stop  offset="0.2156" style="stop-color:#EECCA5"/>
			<stop  offset="0.4618" style="stop-color:#EFD3B3"/>
			<stop  offset="0.7231" style="stop-color:#F2DDCA"/>
			<stop  offset="0.9934" style="stop-color:#F6ECEA"/>
			<stop  offset="1" style="stop-color:#F6EDEB"/>
		</linearGradient>
		<path style="fill:url(#SVGID_00000111176024039363522170000001969161767309053626_);" d="M571.76,486.84h11.77
			c2.03,0,3.97,0.4,5.75,1.09c-0.04-44.53-36.28-80.75-80.83-80.75c-44.57,0-80.83,36.26-80.83,80.83v138.54
			c3.71-0.8,7.56-1.24,11.5-1.24s7.8,0.43,11.5,1.24V488.01c0-31.88,25.94-57.82,57.82-57.82c31.82,0,57.72,25.84,57.82,57.65
			C567.99,487.21,569.83,486.84,571.76,486.84z"/>
	</g>
</g>
<g>
	<g>
		
			<linearGradient id="SVGID_00000170239553061453301270000012751367211512289672_" gradientUnits="userSpaceOnUse" x1="425.4512" y1="357.6646" x2="425.4512" y2="381.769">
			<stop  offset="0" style="stop-color:#FFFFFF"/>
			<stop  offset="1" style="stop-color:#F6EDEB"/>
		</linearGradient>
		<circle style="fill:url(#SVGID_00000170239553061453301270000012751367211512289672_);" cx="425.45" cy="369.72" r="12.05"/>
		<path class="st22" d="M434.58,366.19c0,1.71-1.39,3.1-3.1,3.1c-1.71,0-3.1-1.39-3.1-3.1c0-1.71,1.39-3.1,3.1-3.1
			C433.19,363.08,434.58,364.47,434.58,366.19z"/>
	</g>
	<g>
		
			<linearGradient id="SVGID_00000098909935548311177830000016526235621874650794_" gradientUnits="userSpaceOnUse" x1="-854.3973" y1="1720.3986" x2="-854.3973" y2="1760.3925" gradientTransform="matrix(0.1963 -0.9805 0.9805 0.1963 -1205.5046 -588.5149)">
			<stop  offset="0" style="stop-color:#FFFFFF"/>
			<stop  offset="1" style="stop-color:#F6EDEB"/>
		</linearGradient>
		<circle style="fill:url(#SVGID_00000098909935548311177830000016526235621874650794_);" cx="333.24" cy="590.86" r="20"/>
		<path class="st22" d="M330.47,574.86c2.79,0.56,4.6,3.27,4.04,6.06c-0.56,2.79-3.27,4.6-6.06,4.04c-2.79-0.56-4.6-3.27-4.04-6.06
			C324.96,576.11,327.68,574.3,330.47,574.86z"/>
	</g>
	<g>
		
			<linearGradient id="SVGID_00000183213711064262977960000005179848069350611345_" gradientUnits="userSpaceOnUse" x1="-2223.1333" y1="19.2294" x2="-2223.1333" y2="51.5069" gradientTransform="matrix(-0.9348 0.3551 -0.3551 -0.9348 -1560.1475 1334.2625)">
			<stop  offset="0" style="stop-color:#FFFFFF"/>
			<stop  offset="1" style="stop-color:#F6EDEB"/>
		</linearGradient>
		<circle style="fill:url(#SVGID_00000183213711064262977960000005179848069350611345_);" cx="505.48" cy="511.77" r="16.14"/>
		<path class="st22" d="M495.73,520.52c-0.82-2.15,0.26-4.55,2.41-5.36c2.15-0.82,4.55,0.26,5.36,2.41
			c0.82,2.15-0.26,4.55-2.41,5.36C498.94,523.75,496.54,522.67,495.73,520.52z"/>
	</g>
	<g>
		
			<linearGradient id="SVGID_00000090263785709031310080000017336254088697763760_" gradientUnits="userSpaceOnUse" x1="-580.4709" y1="-1088.9116" x2="-580.4709" y2="-1014.3651" gradientTransform="matrix(0.1647 0.9863 -0.9863 0.1647 -223.7214 1456.2524)">
			<stop  offset="0" style="stop-color:#FFFFFF"/>
			<stop  offset="1" style="stop-color:#F6EDEB"/>
		</linearGradient>
		<circle style="fill:url(#SVGID_00000090263785709031310080000017336254088697763760_);" cx="717.91" cy="710.53" r="37.27"/>
		
			<ellipse transform="matrix(0.0735 -0.9973 0.9973 0.0735 -47.1541 1403.4672)" class="st22" cx="731.74" cy="727.11" rx="9.6" ry="9.6"/>
	</g>
</g>
<g>
	<g>
		<path class="st5" d="M673,594.67c4.53-3.97,9.04-5.17,14.58-6.19c1.1-0.2,1.42-1.63,0.5-2.27c-4.07-2.85-8.01-5.91-11.47-9.47
			c-4.17-4.3-7.64-12.22-9.38-17.95l-0.7-2.09c-0.38-1.15-2.01-1.15-2.39,0l-0.7,2.09c-1.74,5.72-5.21,13.65-9.38,17.95
			c-3.46,3.56-7.39,6.61-11.46,9.46c-0.92,0.64-0.59,2.08,0.51,2.27c0.11,0.02,0.21,0.04,0.31,0.06c8.24,1.48,15.13,7.1,18.26,14.86
			c1.85,4.6,3.65,10.16,3.65,14.43C665.33,617.82,664.39,602.22,673,594.67z"/>
	</g>
	<g>
		<path class="st5" d="M821.31,646.33c2.42-2.12,4.83-2.76,7.78-3.31c0.59-0.11,0.76-0.87,0.27-1.21c-2.18-1.52-4.28-3.15-6.13-5.06
			c-2.23-2.29-4.08-6.53-5.01-9.58l-0.37-1.12c-0.2-0.61-1.07-0.61-1.28,0l-0.37,1.12c-0.93,3.06-2.78,7.29-5.01,9.58
			c-1.84,1.9-3.95,3.53-6.12,5.05c-0.49,0.34-0.32,1.11,0.27,1.21c0.06,0.01,0.11,0.02,0.17,0.03c4.4,0.79,8.08,3.79,9.75,7.94
			c0.99,2.46,1.95,5.43,1.95,7.71C817.22,658.7,816.72,650.37,821.31,646.33z"/>
	</g>
	<g>
		<path class="st5" d="M508.48,875.64c3.13-2.75,6.26-3.58,10.09-4.29c0.76-0.14,0.98-1.13,0.35-1.57
			c-2.82-1.98-5.55-4.09-7.94-6.56c-2.89-2.97-5.29-8.46-6.49-12.43l-0.48-1.45c-0.27-0.8-1.39-0.8-1.66,0l-0.48,1.45
			c-1.21,3.96-3.61,9.45-6.49,12.43c-2.39,2.46-5.12,4.58-7.93,6.55c-0.64,0.45-0.41,1.44,0.35,1.57c0.07,0.01,0.15,0.03,0.22,0.04
			c5.7,1.03,10.47,4.92,12.64,10.29c1.28,3.18,2.53,7.03,2.53,9.99C503.18,891.66,502.53,880.87,508.48,875.64z"/>
	</g>
	<g>
		<path class="st5" d="M249.77,684.5c6.01-5.27,11.99-6.85,19.34-8.22c1.46-0.27,1.88-2.16,0.67-3.01
			c-5.4-3.78-10.63-7.84-15.22-12.56c-5.53-5.7-10.13-16.22-12.44-23.81l-0.93-2.77c-0.51-1.52-2.67-1.52-3.17,0l-0.93,2.77
			c-2.31,7.59-6.91,18.11-12.44,23.81c-4.58,4.72-9.8,8.77-15.2,12.55c-1.22,0.85-0.79,2.75,0.68,3.01
			c0.14,0.02,0.28,0.05,0.42,0.07c10.93,1.97,20.07,9.42,24.22,19.72c2.46,6.1,4.84,13.48,4.84,19.15
			C239.6,715.21,238.35,694.52,249.77,684.5z"/>
	</g>
	<g>
		<path class="st5" d="M574.88,356.57c1.41-1.23,2.81-1.6,4.53-1.92c0.34-0.06,0.44-0.51,0.16-0.71c-1.27-0.89-2.49-1.83-3.56-2.94
			c-1.29-1.33-2.37-3.8-2.91-5.57l-0.22-0.65c-0.12-0.36-0.62-0.36-0.74,0l-0.22,0.65c-0.54,1.78-1.62,4.24-2.91,5.57
			c-1.07,1.11-2.29,2.05-3.56,2.94c-0.29,0.2-0.18,0.64,0.16,0.71c0.03,0.01,0.07,0.01,0.1,0.02c2.56,0.46,4.7,2.21,5.67,4.62
			c0.58,1.43,1.13,3.16,1.13,4.48C572.5,363.76,572.21,358.92,574.88,356.57z"/>
	</g>
</g>
</svg>
