<?xml version="1.0" encoding="utf-8"?>
<!-- Generator: Adobe Illustrator 27.3.1, SVG Export Plug-In . SVG Version: 6.00 Build 0)  -->
<svg version="1.1" id="Layer_1" xmlns="http://www.w3.org/2000/svg" xmlns:xlink="http://www.w3.org/1999/xlink" x="0px" y="0px"
	 viewBox="0 0 500 500" style="enable-background:new 0 0 500 500;" xml:space="preserve">
<style type="text/css">
	.st0{fill:#EB3A6B;}
	.st1{fill:url(#SVGID_1_);}
	.st2{fill:#FFFFFF;}
</style>
<g>
	<path class="st0" d="M295.19,481.28l186.09-186.09c24.96-24.96,24.96-65.42,0-90.38L295.19,18.72c-24.96-24.96-65.42-24.96-90.38,0
		L18.72,204.81c-24.96,24.96-24.96,65.42,0,90.38l186.09,186.09C229.77,506.24,270.23,506.24,295.19,481.28z"/>
	<g>
		
			<linearGradient id="SVGID_1_" gradientUnits="userSpaceOnUse" x1="657.3474" y1="200.2238" x2="658.2859" y2="501.9913" gradientTransform="matrix(-1 3.100000e-03 3.100000e-03 1 888.2599 -106.437)">
			<stop  offset="0" style="stop-color:#12497F"/>
			<stop  offset="1" style="stop-color:#1C2B58"/>
		</linearGradient>
		<path class="st1" d="M133.01,221.66L133.01,221.66c4.66-5.03,12.19-6.16,18.12-2.72l31.51,13.49l-0.88-47.99l0,0l-1.01-76.62
			c0.58-5.92,5.55-10.44,11.5-10.46l0,0c5.95-0.02,10.95,4.47,11.57,10.39l15.19,82.69l0,0l6.06-84.16
			c0.57-5.92,5.53-10.44,11.48-10.46l0,0c5.95-0.02,10.94,4.47,11.54,10.39l9.95,84.11l0,0l11.78-81.73
			c0.58-5.92,5.55-10.44,11.5-10.46l0,0c5.95-0.02,10.95,4.47,11.56,10.39l8.4,81.66l8.97-54.8c0.77-5.95,5.83-10.4,11.82-10.42
			c6-0.02,11.08,4.41,11.89,10.35l-5.53,56.35h0l-12.3,205.54l-57.45,0.18l-68.81,0.21l-5.54-102.44l-52.64-55.22
			C127.8,234.28,128.35,226.69,133.01,221.66z"/>
		<polygon class="st2" points="186.77,340.19 189.87,397.59 258.68,397.38 316.13,397.2 319.57,339.78 		"/>
	</g>
</g>
</svg>
