<?xml version="1.0" encoding="utf-8"?>
<!-- Generator: Adobe Illustrator 27.3.1, SVG Export Plug-In . SVG Version: 6.00 Build 0)  -->
<svg version="1.1" id="Layer_1" xmlns="http://www.w3.org/2000/svg" xmlns:xlink="http://www.w3.org/1999/xlink" x="0px" y="0px"
	 viewBox="0 0 500 500" style="enable-background:new 0 0 500 500;" xml:space="preserve">
<style type="text/css">
	.st0{fill:#EB3A6B;}
	.st1{fill:url(#SVGID_1_);}
	.st2{fill:url(#SVGID_00000117635160303150579940000015995241161019603078_);}
	.st3{fill:url(#SVGID_00000125567075449928119720000014067935220548010659_);}
	.st4{fill:#343330;}
	.st5{fill:url(#SVGID_00000114058956597863168830000008892000368664355467_);}
	.st6{fill:url(#SVGID_00000006683943648551889210000005838055350075988917_);}
	.st7{fill:url(#SVGID_00000072253636675510125010000001842074398935905174_);}
	.st8{fill:url(#SVGID_00000129195014366898275170000009617245487247721623_);}
	.st9{fill:url(#SVGID_00000160894472545652077210000012871021295250400439_);}
	.st10{fill:url(#SVGID_00000140006764448619297660000004178684325894583459_);}
</style>
<g>
	<path class="st0" d="M294.21,481.47l186.88-185.3c25.06-24.85,25.23-65.32,0.38-90.38L296.17,18.91
		c-24.85-25.06-65.32-25.24-90.38-0.38L18.91,203.83c-25.06,24.85-25.23,65.32-0.38,90.38l185.3,186.88
		C228.68,506.15,269.15,506.32,294.21,481.47z"/>
	<g>
		<g>
			<linearGradient id="SVGID_1_" gradientUnits="userSpaceOnUse" x1="204.4752" y1="280.9525" x2="204.4752" y2="368.6327">
				<stop  offset="0" style="stop-color:#12497F"/>
				<stop  offset="0.0652" style="stop-color:#164478"/>
				<stop  offset="0.236" style="stop-color:#1B3969"/>
				<stop  offset="0.4271" style="stop-color:#1C315F"/>
				<stop  offset="0.6528" style="stop-color:#1C2C59"/>
				<stop  offset="1" style="stop-color:#1C2B58"/>
			</linearGradient>
			<path class="st1" d="M262.73,368.63H146.22c-7.02,0-12.7-5.69-12.7-12.7v-62.27c0-7.02,5.69-12.7,12.7-12.7h116.51
				c7.02,0,12.7,5.69,12.7,12.7v62.27C275.43,362.94,269.75,368.63,262.73,368.63z"/>
			
				<linearGradient id="SVGID_00000055674165804023349830000017439478502977383307_" gradientUnits="userSpaceOnUse" x1="204.4755" y1="229.5784" x2="204.4755" y2="306.5321">
				<stop  offset="0" style="stop-color:#12497F"/>
				<stop  offset="0.166" style="stop-color:#184174"/>
				<stop  offset="0.4673" style="stop-color:#1C3564"/>
				<stop  offset="0.7518" style="stop-color:#1C2E5B"/>
				<stop  offset="1" style="stop-color:#1C2B58"/>
			</linearGradient>
			<path style="fill:url(#SVGID_00000055674165804023349830000017439478502977383307_);" d="M242.95,268.05
				c0,21.25-17.23,38.48-38.48,38.48c-21.25,0-38.48-17.23-38.48-38.48c0-21.25,17.23-38.48,38.48-38.48
				C225.73,229.58,242.95,246.81,242.95,268.05z"/>
			<g>
				
					<linearGradient id="SVGID_00000127758410819745083770000013164747270223379588_" gradientUnits="userSpaceOnUse" x1="204.4755" y1="252.4248" x2="204.4755" y2="368.6327">
					<stop  offset="0" style="stop-color:#12497F"/>
					<stop  offset="0.5028" style="stop-color:#13487D"/>
					<stop  offset="0.6839" style="stop-color:#164479"/>
					<stop  offset="0.813" style="stop-color:#193E70"/>
					<stop  offset="0.9167" style="stop-color:#1B3665"/>
					<stop  offset="1" style="stop-color:#1C2B58"/>
				</linearGradient>
				<path style="fill:url(#SVGID_00000127758410819745083770000013164747270223379588_);" d="M241.42,252.42h-73.88
					c-9.93,0-17.98,8.05-17.98,17.98v80.24c0,9.93,8.05,17.98,17.98,17.98h73.88c9.93,0,17.98-8.05,17.98-17.98v-80.24
					C259.4,260.48,251.35,252.42,241.42,252.42z"/>
				<g>
					
						<rect x="202.19" y="285.97" transform="matrix(-1.836970e-16 1 -1 -1.836970e-16 518.4609 111.465)" class="st4" width="2.62" height="57.99"/>
					
						<rect x="202.19" y="295.34" transform="matrix(-1.836970e-16 1 -1 -1.836970e-16 527.8304 120.8345)" class="st4" width="2.62" height="57.99"/>
					
						<rect x="202.19" y="304.71" transform="matrix(-1.836970e-16 1 -1 -1.836970e-16 537.1993 130.2035)" class="st4" width="2.62" height="57.99"/>
					
						<rect x="202.19" y="314.08" transform="matrix(-1.836970e-16 1 -1 -1.836970e-16 546.5689 139.573)" class="st4" width="2.62" height="57.99"/>
					
						<rect x="202.19" y="323.45" transform="matrix(-1.836970e-16 1 -1 -1.836970e-16 555.9379 148.942)" class="st4" width="2.62" height="57.99"/>
				</g>
				
					<linearGradient id="SVGID_00000132056859633471560970000006374180070815604158_" gradientUnits="userSpaceOnUse" x1="203.4979" y1="264.5683" x2="203.4979" y2="301.3354">
					<stop  offset="0" style="stop-color:#12497F"/>
					<stop  offset="0.0652" style="stop-color:#164478"/>
					<stop  offset="0.236" style="stop-color:#1B3969"/>
					<stop  offset="0.4271" style="stop-color:#1C315F"/>
					<stop  offset="0.6528" style="stop-color:#1C2C59"/>
					<stop  offset="1" style="stop-color:#1C2B58"/>
				</linearGradient>
				<path style="fill:url(#SVGID_00000132056859633471560970000006374180070815604158_);" d="M221.88,282.95
					c0,10.15-8.23,18.38-18.38,18.38c-10.15,0-18.38-8.23-18.38-18.38c0-10.15,8.23-18.38,18.38-18.38
					C213.65,264.57,221.88,272.8,221.88,282.95z"/>
			</g>
		</g>
		<g>
			
				<linearGradient id="SVGID_00000127029928678420116850000012426209759484218255_" gradientUnits="userSpaceOnUse" x1="303.0232" y1="347.764" x2="303.0232" y2="333.7017">
				<stop  offset="0.0197" style="stop-color:#EFA81F"/>
				<stop  offset="1" style="stop-color:#FFCE06"/>
			</linearGradient>
			<path style="fill:url(#SVGID_00000127029928678420116850000012426209759484218255_);" d="M318.45,347.76h-30.86
				c-3.88,0-7.03-3.15-7.03-7.03l0,0c0-3.88,3.15-7.03,7.03-7.03h30.86c3.88,0,7.03,3.15,7.03,7.03l0,0
				C325.48,344.62,322.34,347.76,318.45,347.76z"/>
			<g>
				
					<linearGradient id="SVGID_00000131344685743082410040000005362746138277471931_" gradientUnits="userSpaceOnUse" x1="303.0232" y1="342.5954" x2="303.0232" y2="368.6327">
					<stop  offset="0" style="stop-color:#EECBA1"/>
					<stop  offset="1" style="stop-color:#F6EDEB"/>
				</linearGradient>
				<path style="fill:url(#SVGID_00000131344685743082410040000005362746138277471931_);" d="M355.18,342.6H250.86
					c-6.24,0-11.3,5.06-11.3,11.3v8.04v-4.6v11.3h11.3h104.32h11.3v-11.3v4.6v-8.04C366.48,347.66,361.42,342.6,355.18,342.6z"/>
			</g>
		</g>
		<g>
			
				<linearGradient id="SVGID_00000065032514419323069240000011356707734361263547_" gradientUnits="userSpaceOnUse" x1="302.9268" y1="188.1433" x2="302.9268" y2="333.7017">
				<stop  offset="0" style="stop-color:#F15922"/>
				<stop  offset="1" style="stop-color:#E04426"/>
			</linearGradient>
			
				<rect x="296.79" y="188.14" style="fill:url(#SVGID_00000065032514419323069240000011356707734361263547_);" width="12.26" height="145.56"/>
			
				<linearGradient id="SVGID_00000045612877601511279090000014630498580606241920_" gradientUnits="userSpaceOnUse" x1="302.9265" y1="131.1573" x2="302.9265" y2="191.6338">
				<stop  offset="0" style="stop-color:#12497F"/>
				<stop  offset="0.5028" style="stop-color:#13487D"/>
				<stop  offset="0.6839" style="stop-color:#164479"/>
				<stop  offset="0.813" style="stop-color:#193E70"/>
				<stop  offset="0.9167" style="stop-color:#1B3665"/>
				<stop  offset="1" style="stop-color:#1C2B58"/>
			</linearGradient>
			<path style="fill:url(#SVGID_00000045612877601511279090000014630498580606241920_);" d="M307.11,191.63h-8.36
				c-6.22,0-11.26-5.04-11.26-11.25v-37.97c0-6.22,5.04-11.26,11.26-11.26h8.36c6.22,0,11.26,5.04,11.26,11.26v37.97
				C318.36,186.6,313.32,191.63,307.11,191.63z"/>
			
				<linearGradient id="SVGID_00000047769981793974819890000007081544881470005390_" gradientUnits="userSpaceOnUse" x1="253.7485" y1="230.4579" x2="253.7485" y2="74.5404">
				<stop  offset="0" style="stop-color:#EECBA1"/>
				<stop  offset="1" style="stop-color:#F6EDEB"/>
			</linearGradient>
			<path style="fill:url(#SVGID_00000047769981793974819890000007081544881470005390_);" d="M298.74,131.16h8.36
				c1.44,0,2.82,0.28,4.09,0.78c-0.03-31.65-25.79-57.4-57.45-57.4c-31.68,0-57.45,25.77-57.45,57.45v98.47
				c2.64-0.57,5.37-0.88,8.18-0.88c2.81,0,5.54,0.31,8.18,0.88v-98.47c0-22.66,18.44-41.1,41.1-41.1
				c22.62,0,41.03,18.37,41.09,40.97C296.06,131.42,297.37,131.16,298.74,131.16z"/>
		</g>
	</g>
</g>
</svg>
