<?xml version="1.0" encoding="utf-8"?>
<!-- Generator: Adobe Illustrator 27.3.1, SVG Export Plug-In . SVG Version: 6.00 Build 0)  -->
<svg version="1.1" id="Layer_1" xmlns="http://www.w3.org/2000/svg" xmlns:xlink="http://www.w3.org/1999/xlink" x="0px" y="0px"
	 viewBox="0 0 500 500" style="enable-background:new 0 0 500 500;" xml:space="preserve">
<style type="text/css">
	.st0{fill:#EB3A6B;}
	.st1{fill:url(#SVGID_1_);}
	.st2{fill:#FFFFFF;}
	.st3{fill:url(#SVGID_00000063618792070678154100000006641691489850529968_);}
</style>
<g>
	<g>
		<path class="st0" d="M294.21,481.47l186.88-185.3c25.06-24.85,25.23-65.32,0.38-90.38L296.17,18.91
			c-24.85-25.06-65.32-25.24-90.38-0.38L18.91,203.83c-25.06,24.85-25.23,65.32-0.38,90.38l185.3,186.88
			C228.68,506.15,269.15,506.32,294.21,481.47z"/>
	</g>
	<g>
		<g>
			<linearGradient id="SVGID_1_" gradientUnits="userSpaceOnUse" x1="131.4264" y1="195.9297" x2="269.0078" y2="195.9297">
				<stop  offset="0" style="stop-color:#12497F"/>
				<stop  offset="0.0652" style="stop-color:#164478"/>
				<stop  offset="0.236" style="stop-color:#1B3969"/>
				<stop  offset="0.4271" style="stop-color:#1C315F"/>
				<stop  offset="0.6528" style="stop-color:#1C2C59"/>
				<stop  offset="1" style="stop-color:#1C2B58"/>
			</linearGradient>
			<path class="st1" d="M226.43,191.71c-10.22-15.45,1.69-33.32,19.21-40.01c4.53-1.69,9.12-2.18,13.87-2.82
				c1.12-0.13,3.56-0.16,5.9-0.18c5-0.06,4.59-6.77-0.01-7.47c-2.59-0.37-5.44-0.79-6.87-0.9c-25.88-2.32-53.44,6.96-79.56,33.07
				c-1.87,1.91-3.8,3.79-5.67,5.68c-4.66,18.97-17.15,24.36-23.14,25.88c-2.8-2.41-7.04-2.3-9.7,0.35
				c-0.58,0.58-1.04,1.24-1.38,1.94l-5.6,5.54c-2.75,2.76-2.75,7.19,0,9.91l27.25,27.15c2.71,2.71,7.19,2.71,9.94,0l5.27-5.27
				c0.8-0.35,1.55-0.84,2.21-1.49c2.33-2.33,2.72-5.87,1.15-8.61c0.01-0.03,0.02-0.06,0.02-0.09c0.13-0.43,0.28-0.92,0.47-1.43
				c0.22-0.64,0.51-1.27,0.8-1.91c0.17-0.3,0.29-0.62,0.46-0.94c0.43-0.75,0.95-1.43,1.47-2.07c1.08-1.23,2.42-2.33,4.15-3
				c2.92-1.15,5.83-1.49,8.62-1.29c0.18-0.02,0.36-0.04,0.55-0.04L226.43,191.71z"/>
			<path class="st2" d="M232.72,199.77c-1.54-1.52-2.82-3.09-3.87-4.68l-30.6,31.99c-0.19,0-0.37,0.01-0.54,0.04
				c7.78,0.55,14.7,5.27,18.6,8.48c0.46,0.4,108.71,108.94,108.71,108.94l27.49-25.15C352.51,319.39,234.46,201.47,232.72,199.77z"
				/>
		</g>
		
			<linearGradient id="SVGID_00000085231639967549293570000007254433211603800506_" gradientUnits="userSpaceOnUse" x1="165.1691" y1="258.3182" x2="368.5736" y2="258.3182">
			<stop  offset="0" style="stop-color:#12497F"/>
			<stop  offset="1" style="stop-color:#1C2B58"/>
		</linearGradient>
		<path style="fill:url(#SVGID_00000085231639967549293570000007254433211603800506_);" d="M221.03,350.47
			c8.64-8.66,11.42-20.97,8.35-31.97l20.09-20.06c0.27-0.24,0.55-0.48,0.81-0.75l27.85-27.88l28.12-28.09
			c0.27-0.26,0.51-0.54,0.75-0.82l20.06-20.08c11,3.08,23.31,0.29,31.97-8.35c8.56-8.61,11.37-20.76,8.4-31.7l-18.52,18.53
			l-18.15-4.87l-4.87-18.16l18.52-18.52c-10.94-2.96-23.09-0.16-31.69,8.43c-9.01,9.01-11.66,21.98-7.96,33.33l-0.09,0.09
			l-49.55,49.55l-46.95,46.94l-0.09,0.1c-11.35-3.69-24.32-1.05-33.33,7.96c-8.59,8.6-11.39,20.76-8.43,31.69l18.52-18.52
			l18.16,4.86l4.87,18.15l-18.53,18.52C200.27,361.85,212.43,359.03,221.03,350.47z"/>
	</g>
</g>
</svg>
