<?xml version="1.0" encoding="utf-8"?>
<!-- Generator: Adobe Illustrator 27.3.1, SVG Export Plug-In . SVG Version: 6.00 Build 0)  -->
<svg version="1.1" id="Layer_1" xmlns="http://www.w3.org/2000/svg" xmlns:xlink="http://www.w3.org/1999/xlink" x="0px" y="0px"
	 viewBox="0 0 500 500" style="enable-background:new 0 0 500 500;" xml:space="preserve">
<style type="text/css">
	.st0{fill:#EB386A;}
	.st1{fill:#2A1F0F;}
	.st2{fill:url(#SVGID_1_);}
	.st3{fill:#3B2E2A;}
	.st4{fill-rule:evenodd;clip-rule:evenodd;fill:#FAF2EA;}
	.st5{fill-rule:evenodd;clip-rule:evenodd;fill:#3A3025;}
</style>
<g>
	<g>
		<g>
			<path class="st0" d="M294.21,481.47l186.88-185.3c25.06-24.85,25.23-65.32,0.38-90.38L296.17,18.91
				c-24.85-25.06-65.32-25.24-90.38-0.38L18.91,203.83c-25.06,24.85-25.23,65.32-0.38,90.38l185.3,186.88
				C228.68,506.15,269.15,506.32,294.21,481.47z"/>
		</g>
	</g>
	<g>
		<g>
			<rect x="191.76" y="320.14" class="st1" width="110.31" height="42.62"/>
			<path class="st1" d="M343.67,153.7H149.08c-1.58,0-2.87-1.29-2.87-2.87v-10.9c0-1.58,1.29-2.87,2.87-2.87h194.59
				c1.58,0,2.87,1.29,2.87,2.87v10.9C346.54,152.41,345.25,153.7,343.67,153.7z"/>
			<linearGradient id="SVGID_1_" gradientUnits="userSpaceOnUse" x1="167.5183" y1="222.7153" x2="327.0882" y2="222.7153">
				<stop  offset="0" style="stop-color:#084780"/>
				<stop  offset="1" style="stop-color:#0F2959"/>
			</linearGradient>
			<path class="st2" d="M315.09,331.71H179.52c-6.6,0-12-5.4-12-12V125.72c0-6.6,5.4-12,12-12h135.57c6.6,0,12,5.4,12,12v193.99
				C327.09,326.31,321.69,331.71,315.09,331.71z"/>
			<path class="st3" d="M186.12,377.28h-11.16c-1.62,0-2.94-1.32-2.94-2.94V337.6c0-1.62,1.32-2.94,2.94-2.94h11.16
				c1.62,0,2.94,1.32,2.94,2.94v36.74C189.06,375.96,187.74,377.28,186.12,377.28z"/>
			<path class="st3" d="M318.87,377.28h-11.16c-1.62,0-2.94-1.32-2.94-2.94V337.6c0-1.62,1.32-2.94,2.94-2.94h11.16
				c1.62,0,2.94,1.32,2.94,2.94v36.74C321.81,375.96,320.49,377.28,318.87,377.28z"/>
			<polygon class="st1" points="168.06,153.23 325.93,153.23 325.93,170.98 			"/>
		</g>
		<ellipse class="st4" cx="246.55" cy="245.5" rx="36.45" ry="37.5"/>
		<g>
			<path class="st5" d="M271.11,251.3l-6.6-11.52l-8.67,4.97l5.72,10c0.42,0.57,0.99,0.29,2.56,0.32c1.77,0.04,3.4,0.03,5.21,0.03
				C272.27,255.13,272.52,253.76,271.11,251.3z"/>
			<path class="st5" d="M238.24,223l-6.68,11.47l8.65,5.02l5.8-9.95c0.29-0.65-0.24-1.01-1-2.38c-0.85-1.56-1.67-2.95-2.58-4.53
				C240.97,220.07,239.67,220.54,238.24,223z"/>
			<path class="st5" d="M251.04,236.21c-0.76,0.77-2.84,1.44-3.77,2.28c0.51,0.35,12.52,3.59,13.2,3.6l3.57-13.22
				c-1.08,0.4-3.21,2.01-4.11,2.07c-0.51-0.13-4.52-7.82-5.25-8.86c-1.16-1.66-2.96-1.58-5.51-1.58c-2.35,0-4.74-0.04-7.09,0
				c0.46,0.59,0.76,0.87,1.25,1.74l3.36,5.95C247.44,229.56,251.01,235.19,251.04,236.21z"/>
			<path class="st5" d="M222.41,240.66l0.01,0.06c4.53,3.5,4.98,0.32,1.04,7.38c-0.63,1.14-2.53,3.97-2.64,5.19
				c-0.12,1.37,0.36,2.06,0.9,2.94c0.84,1.37,3.81,6.48,4.28,7.45l0.32-0.23c0.12-0.93,3.59-6.6,4.27-7.79
				c0.71-1.25,1.52-2.51,2.19-3.77c0.3-0.58,1.91-3.63,2.38-3.67c1.24,0.37,2.67,1.65,3.93,2.13l-3.51-13.28
				C234.38,237.31,222.81,240.36,222.41,240.66z"/>
			<path class="st5" d="M252.83,270.27c0.02,0.02,0.06,0.04,0.09,0.05c0.02,0.01,0.06,0.04,0.08,0.05c0.24,0.18,0.15,0.13,0.16,0.14
				c0.09-0.55,0.05-2.34,0.04-3.1l0.18-1.03c0.52-0.57,5.75-0.32,6.81-0.34c6.42-0.11,5.23,0.05,8.53-5.66
				c0.88-1.52,1.94-3.31,2.55-4.62c-1.53,0.51-12.41,0.23-15.73,0.33c-0.38,0.01-0.79,0.03-1.18,0.03c-0.13,0-0.44-0.01-0.56-0.03
				c-0.5-0.12-0.13,0.06-0.42-0.2c-0.42-0.55-0.19-3.52-0.21-4.45c-0.89,0.38-8,8.22-9.63,9.73
				C244.37,262.3,252.02,269.7,252.83,270.27z"/>
			<path class="st5" d="M230.23,265.92l13.27,0l-0.01-10l-11.53-0.01c-0.7,0.08-0.74,0.72-1.55,2.06c-0.92,1.52-1.71,2.94-2.62,4.51
				C226.32,265.03,227.39,265.92,230.23,265.92z"/>
		</g>
	</g>
</g>
</svg>
