<?xml version="1.0" encoding="utf-8"?>
<!-- Generator: Adobe Illustrator 27.3.1, SVG Export Plug-In . SVG Version: 6.00 Build 0)  -->
<svg version="1.1" id="Layer_1" xmlns="http://www.w3.org/2000/svg" xmlns:xlink="http://www.w3.org/1999/xlink" x="0px" y="0px"
	 viewBox="0 0 500 500" style="enable-background:new 0 0 500 500;" xml:space="preserve">
<style type="text/css">
	.st0{fill:#EB3A6B;}
	.st1{fill:url(#SVGID_1_);}
	.st2{fill:url(#SVGID_00000073686820389706084500000004268092856924083120_);}
	.st3{fill:url(#SVGID_00000131361881909347443420000016260801283503083148_);}
	.st4{fill:url(#SVGID_00000116944159249648995930000000502956362932852927_);}
	.st5{fill:url(#SVGID_00000114063148936119069490000007343270418438038424_);}
	.st6{fill:url(#SVGID_00000055677554826251270940000009828034451196262575_);}
	.st7{fill:url(#SVGID_00000008859469790192232890000015634952122797599109_);}
	.st8{fill:url(#SVGID_00000107551892700825781900000018116555439912581045_);}
	.st9{fill:url(#SVGID_00000053510027963817121870000014516154900564006563_);}
	.st10{fill:url(#SVGID_00000045593247187825734340000018425900430210117547_);}
	.st11{fill:url(#SVGID_00000168077250939435788500000006227987262792297361_);}
</style>
<g>
	<g>
		<path class="st0" d="M295.19,481.28l186.09-186.09c24.96-24.96,24.96-65.42,0-90.38L295.19,18.72
			c-24.96-24.96-65.42-24.96-90.38,0L18.72,204.81c-24.96,24.96-24.96,65.42,0,90.38l186.09,186.09
			C229.77,506.24,270.23,506.24,295.19,481.28z"/>
	</g>
	<g id="Object_16_">
		<linearGradient id="SVGID_1_" gradientUnits="userSpaceOnUse" x1="264.8884" y1="128.3531" x2="319.1678" y2="128.3531">
			<stop  offset="0" style="stop-color:#12497F"/>
			<stop  offset="1" style="stop-color:#1C2B58"/>
		</linearGradient>
		<path class="st1" d="M292.03,156.88c14.96,0,27.14-12.79,27.14-28.52s-12.18-28.52-27.14-28.52s-27.14,12.8-27.14,28.52
			S277.06,156.88,292.03,156.88z"/>
		
			<linearGradient id="SVGID_00000037652870284046262380000011689798253866025604_" gradientUnits="userSpaceOnUse" x1="195.858" y1="204.4738" x2="253.8657" y2="204.4738">
			<stop  offset="0" style="stop-color:#12497F"/>
			<stop  offset="1" style="stop-color:#1C2B58"/>
		</linearGradient>
		<polygon style="fill:url(#SVGID_00000037652870284046262380000011689798253866025604_);" points="204.53,237.75 253.87,194.17 
			253.87,171.19 195.86,229.65 		"/>
		
			<linearGradient id="SVGID_00000067930984198083021000000011723147649927212164_" gradientUnits="userSpaceOnUse" x1="256.2713" y1="222.7343" x2="329.3894" y2="222.7343">
			<stop  offset="0" style="stop-color:#12497F"/>
			<stop  offset="1" style="stop-color:#1C2B58"/>
		</linearGradient>
		<polygon style="fill:url(#SVGID_00000067930984198083021000000011723147649927212164_);" points="256.27,194.76 256.27,275.97 
			261.13,275.97 281.13,275.97 304.53,275.97 324.54,275.97 329.39,275.97 329.39,169.49 256.27,169.49 		"/>
		
			<linearGradient id="SVGID_00000060750041320735944610000014366096915660467621_" gradientUnits="userSpaceOnUse" x1="262.33" y1="328.4665" x2="279.9306" y2="328.4665">
			<stop  offset="0" style="stop-color:#12497F"/>
			<stop  offset="1" style="stop-color:#1C2B58"/>
		</linearGradient>
		
			<rect x="262.33" y="278.5" style="fill:url(#SVGID_00000060750041320735944610000014366096915660467621_);" width="17.6" height="99.93"/>
		
			<linearGradient id="SVGID_00000063631484122899669030000002583987657023326654_" gradientUnits="userSpaceOnUse" x1="305.7325" y1="328.4665" x2="323.333" y2="328.4665">
			<stop  offset="0" style="stop-color:#12497F"/>
			<stop  offset="1" style="stop-color:#1C2B58"/>
		</linearGradient>
		
			<rect x="305.73" y="278.5" style="fill:url(#SVGID_00000063631484122899669030000002583987657023326654_);" width="17.6" height="99.93"/>
		
			<linearGradient id="SVGID_00000075861712583356308950000008999355344853120956_" gradientUnits="userSpaceOnUse" x1="136.342" y1="323.1088" x2="221.7514" y2="323.1088">
			<stop  offset="0" style="stop-color:#12497F"/>
			<stop  offset="1" style="stop-color:#1C2B58"/>
		</linearGradient>
		<polygon style="fill:url(#SVGID_00000075861712583356308950000008999355344853120956_);" points="145.23,378.43 212.87,378.43 
			221.75,267.79 136.34,267.79 		"/>
		
			<linearGradient id="SVGID_00000183224836389287771800000007267343560050638007_" gradientUnits="userSpaceOnUse" x1="168.8439" y1="247.4029" x2="190.5933" y2="247.4029">
			<stop  offset="0" style="stop-color:#12497F"/>
			<stop  offset="1" style="stop-color:#1C2B58"/>
		</linearGradient>
		<polygon style="fill:url(#SVGID_00000183224836389287771800000007267343560050638007_);" points="177.02,258.61 190.59,245.66 
			182.42,236.2 168.84,249.14 		"/>
		
			<linearGradient id="SVGID_00000029758060674397662740000002706019763057328527_" gradientUnits="userSpaceOnUse" x1="133.8311" y1="323.1089" x2="224.2623" y2="323.1089">
			<stop  offset="0" style="stop-color:#12497F"/>
			<stop  offset="1" style="stop-color:#1C2B58"/>
		</linearGradient>
		<path style="fill:url(#SVGID_00000029758060674397662740000002706019763057328527_);" d="M223.06,265.26h-88.03
			c-0.34,0-0.66,0.15-0.89,0.41c-0.23,0.26-0.34,0.61-0.31,0.96l9.09,113.17c0.05,0.65,0.57,1.16,1.2,1.16h69.85
			c0.62,0,1.15-0.5,1.2-1.16l9.09-113.17c0.03-0.35-0.08-0.7-0.31-0.96C223.72,265.41,223.4,265.26,223.06,265.26z M212.87,378.43
			h-67.64l-8.88-110.64h85.41L212.87,378.43z"/>
		
			<linearGradient id="SVGID_00000183217321289923449540000010412641618750778265_" gradientUnits="userSpaceOnUse" x1="192.8836" y1="273.9628" x2="331.795" y2="273.9628">
			<stop  offset="0" style="stop-color:#12497F"/>
			<stop  offset="1" style="stop-color:#1C2B58"/>
		</linearGradient>
		<path style="fill:url(#SVGID_00000183217321289923449540000010412641618750778265_);" d="M330.59,166.97h-75.52
			c-0.05,0-0.09,0.02-0.14,0.03c-0.06,0.01-0.1,0.02-0.16,0.03c-0.19,0.05-0.36,0.14-0.5,0.27c-0.01,0.01-0.02,0.01-0.03,0.02
			l-60.98,61.45c-0.24,0.24-0.38,0.59-0.37,0.94c0.01,0.35,0.15,0.69,0.4,0.92l10.42,9.75c0.23,0.21,0.51,0.32,0.8,0.32
			c0.27,0,0.55-0.1,0.77-0.3l48.58-42.92v79.77c0,0.7,0.54,1.26,1.2,1.26h4.86V379.7c0,0.7,0.54,1.26,1.2,1.26h20.01
			c0.66,0,1.2-0.57,1.2-1.26V278.5h20.99V379.7c0,0.7,0.54,1.26,1.2,1.26h20.01c0.66,0,1.2-0.57,1.2-1.26V278.5h4.85
			c0.66,0,1.2-0.57,1.2-1.26V168.23C331.8,167.53,331.26,166.97,330.59,166.97z M253.87,194.17l-49.33,43.58l-8.67-8.11l58.01-58.45
			V194.17z M279.93,378.43h-17.6V278.5h17.6V378.43z M323.33,378.43h-17.6V278.5h17.6V378.43z M329.39,275.97h-4.85h-20.01h-23.4
			h-20.01h-4.86v-81.21v-25.26h73.12V275.97z"/>
		
			<linearGradient id="SVGID_00000044178527702005235740000001835824206231394723_" gradientUnits="userSpaceOnUse" x1="165.9432" y1="247.4038" x2="193.494" y2="247.4038">
			<stop  offset="0" style="stop-color:#12497F"/>
			<stop  offset="1" style="stop-color:#1C2B58"/>
		</linearGradient>
		<path style="fill:url(#SVGID_00000044178527702005235740000001835824206231394723_);" d="M166.34,248.12
			c-0.49,0.47-0.53,1.27-0.08,1.79l9.79,11.34c0.21,0.25,0.51,0.4,0.83,0.41c0.02,0,0.04,0,0.06,0c0.3,0,0.59-0.12,0.81-0.33
			l15.36-14.65c0.49-0.47,0.53-1.27,0.08-1.79l-9.79-11.34c-0.44-0.52-1.21-0.55-1.7-0.09L166.34,248.12z M190.59,245.66
			l-13.58,12.95l-8.17-9.47l13.58-12.94L190.59,245.66z"/>
		
			<linearGradient id="SVGID_00000138569605036348490390000016402195542033358781_" gradientUnits="userSpaceOnUse" x1="262.4827" y1="128.3531" x2="321.5734" y2="128.3531">
			<stop  offset="0" style="stop-color:#12497F"/>
			<stop  offset="1" style="stop-color:#1C2B58"/>
		</linearGradient>
		<path style="fill:url(#SVGID_00000138569605036348490390000016402195542033358781_);" d="M292.03,159.4
			c16.29,0,29.55-13.93,29.55-31.05c0-17.12-13.25-31.05-29.55-31.05c-16.29,0-29.54,13.93-29.54,31.05
			C262.48,145.47,275.74,159.4,292.03,159.4z M292.03,99.83c14.96,0,27.14,12.8,27.14,28.52s-12.18,28.52-27.14,28.52
			s-27.14-12.79-27.14-28.52S277.06,99.83,292.03,99.83z"/>
	</g>
</g>
</svg>
