<?xml version="1.0" encoding="utf-8"?>
<!-- Generator: Adobe Illustrator 27.3.1, SVG Export Plug-In . SVG Version: 6.00 Build 0)  -->
<svg version="1.1" id="Layer_1" xmlns="http://www.w3.org/2000/svg" xmlns:xlink="http://www.w3.org/1999/xlink" x="0px" y="0px"
	 viewBox="0 0 500 500" style="enable-background:new 0 0 500 500;" xml:space="preserve">
<style type="text/css">
	.st0{fill:#EB386A;}
	.st1{fill:#FFFFFF;}
	.st2{fill:url(#SVGID_1_);}
	.st3{fill:url(#SVGID_00000033369910875561594320000009739658103772253612_);}
	.st4{fill:url(#SVGID_00000073679805141274046340000001682673119822329216_);}
</style>
<g>
	<g>
		<g>
			<path class="st0" d="M294.21,481.47l186.88-185.3c25.06-24.85,25.23-65.32,0.38-90.38L296.17,18.91
				c-24.85-25.06-65.32-25.24-90.38-0.38L18.91,203.83c-25.06,24.85-25.23,65.32-0.38,90.38l185.3,186.88
				C228.68,506.15,269.15,506.32,294.21,481.47z"/>
		</g>
	</g>
	<g>
		<path class="st1" d="M275.32,101.71c0-13.8-11.19-24.98-24.98-24.98s-24.98,11.18-24.98,24.98c0,8.99,4.75,16.87,11.88,21.27
			v162.01c0,7.24,5.87,13.1,13.1,13.1c7.24,0,13.1-5.87,13.1-13.1V122.98C270.57,118.58,275.32,110.7,275.32,101.71z M250.34,91.36
			c5.72,0,10.35,4.64,10.35,10.35c0,5.72-4.64,10.35-10.35,10.35c-5.72,0-10.35-4.64-10.35-10.35
			C239.98,95.99,244.62,91.36,250.34,91.36z"/>
		<g>
			<linearGradient id="SVGID_1_" gradientUnits="userSpaceOnUse" x1="250.3386" y1="369.4333" x2="250.3386" y2="219.5756">
				<stop  offset="0" style="stop-color:#084780"/>
				<stop  offset="1" style="stop-color:#0F2959"/>
			</linearGradient>
			<path class="st2" d="M283.69,219.58h-66.7c-23.81,0-43.11,19.3-43.11,43.11v47.4v16.23v35.83c0,4.02,3.26,7.28,7.28,7.28h35.83
				h66.7h35.83c4.02,0,7.28-3.26,7.28-7.28v-35.83v-16.23v-47.4C326.8,238.88,307.5,219.58,283.69,219.58z"/>
			
				<linearGradient id="SVGID_00000179612715527304056590000008407266823436820147_" gradientUnits="userSpaceOnUse" x1="250.3386" y1="369.4333" x2="250.3386" y2="237.7173">
				<stop  offset="0" style="stop-color:#084780"/>
				<stop  offset="1" style="stop-color:#0F2959"/>
			</linearGradient>
			<path style="fill:url(#SVGID_00000179612715527304056590000008407266823436820147_);" d="M279.06,237.72h-57.45
				c-20.51,0-37.13,16.62-37.13,37.13v43.47v13.98v30.86c0,3.46,2.81,6.27,6.27,6.27h30.86h57.45h30.86c3.46,0,6.27-2.81,6.27-6.27
				V332.3v-13.98v-43.47C316.2,254.34,299.57,237.72,279.06,237.72z"/>
			
				<linearGradient id="SVGID_00000024719220632820333490000013983691471652777622_" gradientUnits="userSpaceOnUse" x1="250.3386" y1="350.5361" x2="250.3386" y2="369.4333">
				<stop  offset="0" style="stop-color:#084780"/>
				<stop  offset="1" style="stop-color:#0F2959"/>
			</linearGradient>
			<path style="fill:url(#SVGID_00000024719220632820333490000013983691471652777622_);" d="M173.88,362.15
				c0,4.02,3.26,7.28,7.28,7.28h35.83h66.7h35.83c4.02,0,7.28-3.26,7.28-7.28v-11.62H173.88V362.15z"/>
		</g>
	</g>
</g>
</svg>
